<svg xmlns="http://www.w3.org/2000/svg" viewBox="0 0 385.6 597.29"><title>bookcase</title><rect width="385.6" height="597.29" style="fill:#efc72f"/><rect x="16.62" y="16.49" width="352.37" height="91.57" style="fill:#f6e29b"/><rect x="16.62" y="124.55" width="352.37" height="91.57" style="fill:#f6e29b"/><rect x="16.62" y="232.61" width="352.37" height="91.57" style="fill:#f6e29b"/><rect x="16.62" y="340.68" width="352.37" height="91.57" style="fill:#f6e29b"/><rect x="16.62" y="448.74" width="352.37" height="91.57" style="fill:#f6e29b"/><g style="opacity:0.99"><rect x="197.8" y="138.43" width="9.61" height="77.69" rx="2.47" style="fill:#fff"/><rect x="207.41" y="138.43" width="16.74" height="77.69" rx="2.47" style="fill:#c9c268"/><rect x="285.22" y="138.43" width="11.8" height="77.69" rx="2.47" style="fill:#c9c268"/><rect x="240.9" y="138.43" width="10.83" height="77.69" rx="2.47" style="fill:#e1db5b"/><path d="M251.73,147.15V150H240.9v-2.84Zm-10.83,5.68v2.84h10.83v-2.84Zm0,46.06v2.84h10.83v-2.84Zm0,5.68v2.84h10.83v-2.84Z" style="fill:#8db14c;opacity:0.30000000000000004"/><rect x="224.15" y="138.43" width="16.75" height="77.69" rx="2.47" style="fill:#efc72f"/><ellipse cx="232.53" cy="177.28" rx="4.34" ry="9.46" style="fill:#f3d748"/><rect x="268.48" y="138.43" width="16.74" height="77.69" rx="2.47" style="fill:#fff"/><rect x="251.73" y="138.43" width="16.75" height="77.69" rx="2.47" style="fill:#efc72f"/><path d="M263,158.39v37.77a2.93,2.93,0,0,1-5.85,0V158.39a2.93,2.93,0,0,1,5.85,0Zm-2.93-8.31a2.93,2.93,0,1,0-2.92-2.93A2.93,2.93,0,0,0,260.1,150.08Zm0,54.4a2.93,2.93,0,1,0,2.93,2.93A2.93,2.93,0,0,0,260.1,204.48Z" style="fill:#f3d748"/></g><g style="opacity:0.99"><rect x="80.49" y="246.49" width="9.61" height="77.69" rx="2.47" style="fill:#fff"/><rect x="90.1" y="246.49" width="16.74" height="77.69" rx="2.47" style="fill:#c9c268"/><path d="M106.85,255.21v5.68H90.1v-5.68ZM90.1,309.79v5.68h16.75v-5.68Z" style="fill:#d2c971"/><rect x="167.92" y="246.49" width="11.8" height="77.69" rx="2.47" style="fill:#c9c268"/><path d="M179.72,255.21v5.68h-11.8v-5.68Zm-11.8,54.58v5.68h11.8v-5.68Z" style="fill:#d2c971"/><rect x="123.6" y="246.49" width="10.83" height="77.69" rx="2.47" style="fill:#c9c268"/><path d="M134.42,255.21v2.84H123.6v-2.84Zm-10.82,5.68v2.84h10.82v-2.84Zm0,46.06v2.84h10.82V307Zm0,5.68v2.84h10.82v-2.84Z" style="fill:#d2c971"/><rect x="106.85" y="246.49" width="16.75" height="77.69" rx="2.47" style="fill:#e1db5b"/><ellipse cx="115.22" cy="285.34" rx="4.34" ry="9.46" style="fill:#8db14c;opacity:0.30000000000000004"/><rect x="151.17" y="246.49" width="16.74" height="77.69" rx="2.47" style="fill:#fff"/><rect x="134.42" y="246.49" width="16.75" height="77.69" rx="2.47" style="fill:#efc72f"/><path d="M145.73,266.46v37.76a2.93,2.93,0,0,1-5.86,0V266.46a2.93,2.93,0,1,1,5.86,0Zm-2.93-8.32a2.93,2.93,0,1,0-2.93-2.93A2.93,2.93,0,0,0,142.8,258.14Zm0,54.41a2.93,2.93,0,1,0,2.93,2.92A2.93,2.93,0,0,0,142.8,312.55Z" style="fill:#f3d748"/></g><rect x="290.64" y="462.61" width="16.75" height="77.69" rx="2.47" style="fill:#fff"/><rect x="307.39" y="462.61" width="16.75" height="77.69" rx="2.47" style="fill:#c9c268"/><ellipse cx="315.77" cy="501.46" rx="4.34" ry="9.46" style="fill:#8db14c;opacity:0.5"/><rect x="324.14" y="462.61" width="16.74" height="77.69" rx="2.47" style="fill:#efc72f"/><path d="M324.14,525.92h16.75v5.68H324.14ZM338,501.46a5.5,5.5,0,1,0-5.5,5.5A5.49,5.49,0,0,0,338,501.46Zm-13.87-30.12V477h16.75v-5.68Z" style="fill:#f3d748"/><rect x="340.89" y="462.61" width="16.75" height="77.69" rx="2.47" style="fill:#e1db5b"/><path d="M352.19,482.58v37.76a2.93,2.93,0,1,1-5.86,0V482.58a2.93,2.93,0,0,1,5.86,0Zm-2.93-8.32a2.93,2.93,0,1,0-2.93-2.92A2.93,2.93,0,0,0,349.26,474.26Zm0,54.41a2.93,2.93,0,1,0,2.93,2.93A2.93,2.93,0,0,0,349.26,528.67Z" style="fill:#8db14c;opacity:0.30000000000000004"/><rect x="25.76" y="138.43" width="16.75" height="77.69" rx="2.47" style="fill:#c9c268"/><rect x="42.51" y="138.43" width="16.74" height="77.69" rx="2.47" style="fill:#efc72f"/><path d="M59.25,147.15v5.68H42.51v-5.68ZM42.51,201.73v5.68H59.25v-5.68Z" style="fill:#efc72f"/><rect x="59.25" y="138.43" width="16.75" height="77.69" rx="2.47" style="fill:#fff"/><rect x="76" y="138.43" width="16.75" height="77.69" rx="2.47" style="fill:#e1db5b"/><ellipse cx="84.38" cy="177.28" rx="4.34" ry="9.46" style="fill:#8db14c;opacity:0.30000000000000004"/><rect x="92.75" y="138.43" width="16.74" height="77.69" rx="2.47" style="fill:#c9c268"/><rect x="109.5" y="138.43" width="16.75" height="77.69" rx="2.47" style="fill:#efc72f"/><path d="M120.8,158.39v37.77a2.93,2.93,0,0,1-5.85,0V158.39a2.93,2.93,0,0,1,5.85,0Zm-2.93-8.31a2.93,2.93,0,1,0-2.92-2.93A2.93,2.93,0,0,0,117.87,150.08Zm0,54.4a2.93,2.93,0,1,0,2.93,2.93A2.93,2.93,0,0,0,117.87,204.48Z" style="fill:#f3d748"/><rect x="96.16" y="30.42" width="9.61" height="77.69" rx="2.47" transform="translate(-9.18 15.79) rotate(-8.56)" style="fill:#efc72f"/><rect x="34.65" y="30.37" width="16.74" height="77.69" rx="2.47" style="fill:#efc72f"/><path d="M51.39,39.09v5.68H34.65V39.09ZM34.65,93.67v5.68H51.39V93.67Z" style="fill:#efc72f"/><rect x="78.97" y="30.37" width="11.8" height="77.69" rx="2.47" style="fill:#c9c268"/><rect x="51.4" y="30.37" width="10.83" height="77.69" rx="2.47" style="fill:#fff"/><rect x="144.71" y="34.33" width="16.75" height="77.69" rx="2.47" transform="translate(-12.83 108.69) rotate(-37.63)" style="fill:#efc72f"/><ellipse cx="153.09" cy="73.18" rx="4.34" ry="9.46" transform="translate(-12.83 108.69) rotate(-37.63)" style="fill:#f3d748"/><rect x="62.23" y="30.37" width="16.74" height="77.69" rx="2.47" style="fill:#e1db5b"/><path d="M62.23,93.67H79v5.68H62.23ZM76.09,69.21a5.5,5.5,0,1,0-5.49,5.5A5.49,5.49,0,0,0,76.09,69.21ZM62.23,39.09v5.68H79V39.09Z" style="fill:#8db14c;opacity:0.30000000000000004"/><rect x="116.7" y="31.45" width="16.75" height="77.69" rx="2.47" transform="translate(-18.15 61.76) rotate(-25.93)" style="fill:#fff"/><rect x="256.09" y="246.55" width="9.61" height="77.69" rx="2.47" transform="translate(-39.56 42) rotate(-8.56)" style="fill:#e1db5b"/><rect x="194.58" y="246.49" width="16.74" height="77.69" rx="2.47" style="fill:#efc72f"/><path d="M211.32,255.21v5.68H194.58v-5.68Zm-16.74,54.58v5.68h16.74v-5.68Z" style="fill:#f3d748"/><rect x="238.9" y="246.49" width="11.8" height="77.69" rx="2.47" style="fill:#efc72f"/><path d="M250.7,255.21v5.68H238.9v-5.68Zm-11.8,54.58v5.68h11.8v-5.68Z" style="fill:#f3d748"/><rect x="211.33" y="246.49" width="10.83" height="77.69" rx="2.47" style="fill:#fff"/><rect x="304.64" y="250.45" width="16.75" height="77.69" rx="2.47" transform="matrix(0.79, -0.61, 0.61, 0.79, -111.52, 251.3)" style="fill:#e1db5b"/><ellipse cx="313.02" cy="289.3" rx="4.34" ry="9.46" transform="translate(-111.52 251.3) rotate(-37.63)" style="fill:#8db14c;opacity:0.30000000000000004"/><rect x="222.16" y="246.49" width="16.74" height="77.69" rx="2.47" style="fill:#c9c268"/><path d="M222.16,309.79H238.9v5.68H222.16ZM236,285.34a5.5,5.5,0,1,0-5.49,5.49A5.49,5.49,0,0,0,236,285.34Zm-13.86-30.13v5.68H238.9v-5.68Z" style="fill:#d2c971"/><rect x="276.63" y="247.57" width="16.75" height="77.69" rx="2.47" transform="translate(-96.55 153.45) rotate(-25.93)" style="fill:#fff"/><rect x="165.46" y="60.41" width="77.69" height="16.75" rx="2.47" transform="translate(113.87 264.48) rotate(-83.8)" style="fill:#c9c268"/><rect x="216.57" y="30.37" width="16.74" height="77.69" rx="2.47" style="fill:#e1db5b"/><path d="M233.32,39.09v5.68H216.57V39.09ZM216.57,93.67v5.68h16.75V93.67Z" style="fill:#8db14c;opacity:0.30000000000000004"/><rect x="233.32" y="30.37" width="16.75" height="77.69" rx="2.47" style="fill:#c9c268"/><path d="M250.07,39.09v2.83H233.32V39.09Zm-16.75,5.68V47.6h16.75V44.77Zm0,46v2.85h16.75V90.82Zm0,5.68v2.85h16.75V96.5Z" style="fill:#d2c971"/><rect x="311.61" y="30.38" width="16.75" height="77.69" rx="2.47" transform="translate(-5.37 105.69) rotate(-18.6)" style="fill:#e1db5b"/><path d="M318.32,38l.9,2.68L303.34,46l-.9-2.69Zm2.43,59.76.91,2.69,15.88-5.34-.91-2.7Z" style="fill:#8db14c;opacity:0.30000000000000004"/><rect x="329.34" y="30.38" width="16.75" height="77.69" rx="2.47" transform="translate(-4.44 111.34) rotate(-18.6)" style="fill:#fff"/><rect x="250.07" y="30.37" width="16.75" height="77.69" rx="2.47" style="fill:#fff"/><ellipse cx="258.45" cy="69.21" rx="4.34" ry="9.46" style="fill:#f6e29b;opacity:0.25"/><rect x="266.82" y="30.37" width="16.74" height="77.69" rx="2.47" style="fill:#efc72f"/><path d="M266.82,93.67h16.75v5.68H266.82Zm13.87-24.46a5.5,5.5,0,1,0-5.5,5.5A5.49,5.49,0,0,0,280.69,69.21ZM266.82,39.09v5.68h16.75V39.09Z" style="fill:#f3d748"/><rect x="283.57" y="30.37" width="16.75" height="77.69" rx="2.47" style="fill:#c9c268"/><rect x="4.87" y="384.6" width="77.69" height="16.75" rx="2.47" transform="translate(-351.68 394.02) rotate(-83.8)" style="fill:#c9c268"/><rect x="55.98" y="354.55" width="16.74" height="77.69" rx="2.47" style="fill:#e1db5b"/><path d="M72.73,363.27V369H56v-5.68ZM56,417.85v5.68H72.73v-5.68Z" style="fill:#8db14c;opacity:0.30000000000000004"/><rect x="72.73" y="354.55" width="16.75" height="77.69" rx="2.47" style="fill:#fff"/><rect x="151.02" y="354.57" width="16.75" height="77.69" rx="2.47" transform="translate(-117.17 71.4) rotate(-18.6)" style="fill:#efc72f"/><path d="M157.73,362.19l.9,2.69-15.88,5.34-.9-2.68Zm-14.07,10.73.9,2.69,15.88-5.35-.9-2.68Zm14.69,43.65.91,2.69,15.88-5.34-.91-2.7Zm1.81,5.38.91,2.7L177,419.3l-.91-2.69Z" style="fill:#f3d748"/><rect x="168.75" y="354.57" width="16.75" height="77.69" rx="2.47" transform="translate(-116.24 77.05) rotate(-18.6)" style="fill:#e5a637"/><path d="M175.46,362.19l.9,2.69-15.88,5.34-.9-2.68Zm-14.07,10.73.91,2.69,15.87-5.35-.9-2.68Zm14.69,43.65.91,2.69,15.88-5.34-.91-2.7Zm1.81,5.38.91,2.7,15.88-5.35-.91-2.69Z" style="fill:#f3d748"/><rect x="89.48" y="354.55" width="16.75" height="77.69" rx="2.47" style="fill:#efc72f"/><ellipse cx="97.85" cy="393.4" rx="4.34" ry="9.46" style="fill:#f3d748"/><rect x="106.23" y="354.55" width="16.74" height="77.69" rx="2.47" style="fill:#e1db5b"/><path d="M106.23,417.85H123v5.68H106.23ZM120.1,393.4a5.5,5.5,0,1,0-5.5,5.49A5.49,5.49,0,0,0,120.1,393.4Zm-13.87-30.13V369H123v-5.68Z" style="fill:#8db14c;opacity:0.30000000000000004"/><rect x="122.97" y="354.55" width="16.75" height="77.69" rx="2.47" style="fill:#c9c268"/><path d="M134.27,374.52v37.76a2.93,2.93,0,1,1-5.85,0V374.52a2.93,2.93,0,1,1,5.85,0Zm-2.92-8.32a2.93,2.93,0,1,0-2.93-2.93A2.93,2.93,0,0,0,131.35,366.2Zm0,54.41a2.93,2.93,0,1,0,2.92,2.92A2.93,2.93,0,0,0,131.35,420.61Z" style="fill:#d2c971"/><rect x="262.26" y="415.49" width="77.69" height="16.75" rx="2.47" style="fill:#fff"/><rect x="262.26" y="398.74" width="77.69" height="16.75" rx="2.47" style="fill:#efc72f"/><ellipse cx="301.1" cy="407.12" rx="9.46" ry="4.34" style="fill:#f3d748"/><rect x="262.26" y="382" width="77.69" height="16.74" rx="2.47" style="fill:#e1db5b"/><path d="M325.56,398.74V382h5.68v16.74ZM301.1,384.88a5.5,5.5,0,1,0,5.5,5.49A5.49,5.49,0,0,0,301.1,384.88ZM271,398.74h5.68V382H271Z" style="fill:#8db14c;opacity:0.30000000000000004"/><rect x="262.26" y="365.25" width="77.69" height="16.75" rx="2.47" style="fill:#c9c268"/><path d="M282.22,370.7H320a2.93,2.93,0,0,1,0,5.85H282.22a2.93,2.93,0,0,1,0-5.85Zm-8.31,2.92a2.93,2.93,0,1,0-2.93,2.93A2.93,2.93,0,0,0,273.91,373.62Zm54.4,0a2.93,2.93,0,1,0,2.93-2.92A2.93,2.93,0,0,0,328.31,373.62Z" style="fill:#d2c971"/></svg>