<svg xmlns="http://www.w3.org/2000/svg" viewBox="0 0 699.99 554.6"><title>people-sitting</title><path d="M625.37,367.37,631,395.62l31.71,159h13.79l-31.7-159-6.16-30.89ZM545.86,554.6h13.8l31.7-159L597,367.37l-13.26-2.64-6.16,30.89Z" style="fill:#daaf3d"/><path d="M644.81,395.62H631l-5.64-28.25,13.28-2.64Zm-67.24,0h13.79L597,367.37l-13.26-2.64Z" style="fill:#ad6f40;opacity:0.5"/><polygon points="512.36 501 511.51 522.04 478.85 520.03 481.7 496.99 512.36 501" style="fill:#9e5d37"/><path d="M659.07,320.35c-.09,8.62-1.89,17.43-7.49,23.95-12.89,15-59.48,17.43-85.58,17.58a25.58,25.58,0,0,0-24.07,17.38c-10.21,30-16.12,80.41-27.14,125,0,0-15.72,5.23-36.42-3.81,0,0,11.59-119.94,32.08-163.62,15.58-33.21,38.68-40.35,56.81-43.42s70.75-3.68,88.81-8C656.07,285.45,659.23,305.33,659.07,320.35Z" style="fill:#596e72"/><path d="M514.14,516.92s-22.69,2.53-37.77,0c0,0-1.39,7.83-5.63,8.49-6,.93-21.25.58-28.57,6-12.23,9-9.2,23.21-9.2,23.21h83.31A230.53,230.53,0,0,0,514.14,516.92Z" style="fill:#1f1629"/><path d="M449.17,217.7c1.76,2.19,6.27,3.37,10.05,2.2s7.13-4.85,7.13-4.85c32.95,2.15,57.55,1,75.14-3.8,11.5-3.16,45.37-22.92,45.37-22.92l-22-28.39s-16.4,16.58-30,23.14-72.81,18.27-72.81,18.27a34.69,34.69,0,0,0-3.31-2.35c-1.17-.65-8.18.64-10.48,2.84S447.42,215.54,449.17,217.7Z" style="fill:#9e5d37"/><path d="M613.08,108.5c5.26-1.63,17.84-.94,23.67,10.4,6.09,11.87-3.57,43.81-52.4,74.53,0,0-18.34-16-27.67-30.72C556.68,162.71,591.66,115.15,613.08,108.5Z" style="fill:#c7c268"/><path d="M562.84,83.94c2.84,6.12,19.08,16.25,21.81,16.65s11.11-2.14,11.11-2.14l7.48,19.38,7.48-1.65,17.37-3.84L617.16,87.85C616,38,594.4,28.41,574.06,37.23,554.4,45.76,560,77.82,562.84,83.94Z" style="fill:#bb7058"/><path d="M617.16,87.86l-6.83.06s-.13-18.15-10-21-12.39,8.41-12.39,8.41-5.3-12.09-15.14-11.52-43.18.15-38.57-20.68S558,36.37,559,41.77c0,0,15.47-17.36,36.15-9.11C616.62,41.25,619.62,70.91,617.16,87.86Z" style="fill:#3a2c4a"/><polygon points="595.75 98.45 603.24 117.83 610.72 116.18 602.29 95.6 595.75 98.45" style="fill:#9e5d37"/><path d="M575.47,309.25s46.81,4.67,94.66-12.89c0,0-3.26-75.27-14.34-128.51-13.65-65.66-28.89-69.42-41.53-65.54-19.49,6-25.59,18.23-34.34,50-2.21,8.13-3.3,18.84-3.63,31.16-.38,13.22.11,28.35.93,44.21.27,5.47.59,11,.93,16.63C579,259,582,285.06,575.47,309.25Z" style="fill:#e1db5b"/><path d="M412.6,231.25l77.26,6.95a3.38,3.38,0,0,0,3.66-3l3.55-32.73a3.36,3.36,0,0,0-3-3.65l-77.27-6.93a3.34,3.34,0,0,0-3.64,3l-3.56,32.73A3.36,3.36,0,0,0,412.6,231.25Z" style="fill:#3b223d"/><path d="M577.22,227.68c54.67-40.73,56.93-92.57,56.93-92.57l-57.86,48.36C575.91,196.69,576.4,211.82,577.22,227.68Z" style="fill:#c7c268"/><path d="M449.25,232.88c1.86,2.11,6.41,3.09,10.15,1.74s6.9-5.18,6.9-5.18c33,.66,57.53-1.57,74.89-7.2,3.92-1.29,10.45-4.67,17.3-8.55,12.92-7.32,27-16.4,27-16.4l-23.22-27.37s-3.89,4.31-9.44,9.52S540,190.81,533.35,194.39c-13.14,7.11-71.9,21.57-71.9,21.57a32.72,32.72,0,0,0-3.42-2.2c-1.2-.61-8.14,1-10.33,3.32S447.41,230.79,449.25,232.88Z" style="fill:#bb7058"/><path d="M552.81,179.44l5.68,34.25c12.92-7.32,27-16.4,27-16.4l-23.22-27.37S558.36,174.23,552.81,179.44Z" style="fill:#9e5d37"/><path d="M608,116.35c5.18-1.87,17.79-1.75,24.12,9.31,6.63,11.58-1.57,43.92-49,76.83,0,0-19.05-15.17-29-29.43C554.15,173.06,586.94,124,608,116.35Z" style="fill:#e1db5b"/><polygon points="460.42 490.26 450.56 510.56 478.61 520.14 485.34 502.87 460.42 490.26" style="fill:#bb7058"/><path d="M484.05,519s-21.94-6.31-34.92-14.4c0,0-4.26,6.71-8.43,5.7-5.93-1.43-19.87-7.56-28.7-5.36-14.74,3.68-17.35,18-17.35,18l77,31.75A229.3,229.3,0,0,0,484.05,519Z" style="fill:#1f1629"/><path d="M454.78,492.8c1.1.82,2.2,1.6,3.27,2.35,12.11,8.25,22.7,10.82,27.18,11.58a22.3,22.3,0,0,0,2.27.31c17.05-39,43.89-98.2,57-127a25.57,25.57,0,0,1,25.66-14.91c26,2.41,72.6,4.58,86.89-9,4.76-4.54,7.43-10.61,8.83-17a57.22,57.22,0,0,0,1-6.07c1.64-14.94.48-35,.48-35-18.41,2.51-70.83-2.08-89.18-.82-2.86.2-5.84.49-8.91.94-16.7,2.47-36,10.07-51.9,36.68C492.67,376.15,454.78,492.8,454.78,492.8Z" style="fill:#6b8976"/><path d="M569.27,298a148.11,148.11,0,0,1,60.58,17,146.57,146.57,0,0,1,34.95,26,23.26,23.26,0,0,0,1.68-5.12s.23-1.47.4-3c1.64-14.94.48-35,.48-35-18.41,2.51-70.83-2.08-89.18-.82C575.32,297.29,572.34,297.58,569.27,298Z" style="fill:#596e72"/><path d="M552.24,375.3H639.6a50.79,50.79,0,0,0,50.65-47.05L700,196.08h0A23.67,23.67,0,0,0,674.64,218l-8,108.55a27.1,27.1,0,0,1-27,25.11H575.92a23.68,23.68,0,0,0-23.68,23.68Z" style="fill:#2f2d26"/><polygon points="297.47 446.42 303.82 459.64 280.84 471.12 273.93 458.49 297.47 446.42" style="fill:#bb7058"/><path d="M277.56,468.88l7.73,26.5s26.08-2.68,36.11-5.25,21.39-12.44,22.12-16.9-10.06-13.66-19.27-13.37a68.71,68.71,0,0,0-15.79,2.23l-3.31-6.82S288.53,467.54,277.56,468.88Z" style="fill:#1f1629"/><rect x="169.04" y="374.42" width="18.35" height="168.64" style="fill:#daaf3d"/><path d="M115.49,542.72l58.06-14.9a18.62,18.62,0,0,1,9.32,0l58.07,14.9a6.9,6.9,0,0,1,5.17,6.67v5.21H110.32v-5.21A6.89,6.89,0,0,1,115.49,542.72Z" style="fill:#ad6f40"/><rect x="108.79" y="342.61" width="138.85" height="31.81" rx="5.35" style="fill:#2f2d26"/><polygon points="232.53 273.19 235.11 299.8 198.89 278.39 232.53 273.19" style="fill:#596e72"/><path d="M227.23,126.46s11.85,11.39,24.69-2.67c9.53-10.44-15.59-34.18-11.47-49.55,5.07-18.87,15.05-63.06-22.93-72.71-39.15-9.95-36,31.52-64.71,42.53S90.14,69.21,117.36,109C117.36,109,179.82,93.74,227.23,126.46Z" style="fill:#efc72f"/><path d="M218.36,87.09a15.78,15.78,0,0,1-1.46-19.26s-4.27-7.35-14.57-11.71c-4.13-1.74-9.29-.93-14.75,1L178.17,51S169.51,61.09,150,65.41c-24.27,5.37-24.31,20.36-16.52,34.21,2.72,4.82,9.26,4.06,16.64,1,20.39,12.69,74.84,26.78,79.24,16.24C234.65,104.29,226.62,97,218.36,87.09Z" style="fill:#daaf3d"/><path d="M83,201.32a37.59,37.59,0,0,0,2.4,5.67c7.47,14.07,21.8,18.18,21.8,18.18v50.21A156.33,156.33,0,0,0,123.64,279c50.87,8.46,111.22-3.59,111.22-3.59-1.21-25.64,4.5-41.75,4.5-41.75h30.79s-5.41-80-25.38-109.7c-12.44-18.49-27.85-25.83-27.85-25.83-23.2-11.14-70.52-13-70.52-13s-15.2.52-36.15,28.76C91.22,139.53,77.66,185.09,83,201.32Z" style="fill:#3f284c"/><path d="M201.91,73.42A46.74,46.74,0,0,0,198,86.48s5.77,4,18.9,11.62c0,0-1.35.64-3.72,1.52-6.22,2.29-19.43,6.16-33.29,3.83-16.15-2.69-33.49-18.31-33.49-18.31s14.68-5.5,25.07-6l7.51-17A55.75,55.75,0,0,1,178.17,51c15.56-5.28,23.76-19.5,23.76-19.5,7.76,18,24.55,22.93,30.7,24.18a27.79,27.79,0,0,1-4.95,7.12C220.34,70.28,207,74.55,205.8,74.55a11.42,11.42,0,0,1-3-.77l-.81-.31-.09,0Z" style="fill:#bb7058"/><path d="M216.9,98.1s-1.35.64-3.72,1.52a139.63,139.63,0,0,0-25.43-14.48l4.77-15.71,9.39,4A46.74,46.74,0,0,0,198,86.48S203.77,90.44,216.9,98.1Z" style="fill:#9e5d37"/><polygon points="196.94 466.25 193.08 480.39 168.19 474.01 171.25 459.94 196.94 466.25" style="fill:#bb7058"/><path d="M103.77,311.21c1,8.57,3.76,17,9.82,23.11,15.78,16,53,15.85,74.46,14.27,9.6-.69,16-1.7,16-1.7s45.88,58,68.81,114.39c0,0,11.58.57,29-12.59,0,0-50.42-136-66.62-154.71-13.35-15.34-24.47-17.34-42.82-18.6s-66.88,2.49-85.29,0C107.18,275.38,101.72,293.62,103.77,311.21Z" style="fill:#6b8976"/><path d="M169,460.62s10.15,7,30,7.6c0,0,14.63-50.43,20.72-85.92.72-4.13,1.3-8.07,1.74-11.69,0,0-12.58-18-17.41-23.72,0,0-15-19-27.21-25.38,0,0-.48,13.91-1.32,33.51C174.2,387,171.85,434.16,169,460.62Z" style="fill:#6b8976"/><path d="M239.16,225s-1.77-31-8.1-48c0,0,5.6,28.46-6.56,53.8Z" style="fill:#151823"/><path d="M261.69,230.12s-4-5-1-9,5.06-2.32,8.43-4.43,9.49-6.53,14.33-4.22,12.86,15.39,10.33,20a19.32,19.32,0,0,1-4.85,5.62h-10.6Z" style="fill:#bb7058"/><rect x="148.2" y="232.35" width="131.74" height="5.82" style="fill:#efc72f"/><path d="M279.94,232.35S262.65,225,245,225a153.31,153.31,0,0,0-27.88,2.58,18.82,18.82,0,0,1-6.35.15c-6.23-.9-20.11-2.73-30.72-2.73-14.09,0-31.88,7.32-31.88,7.32Z" style="fill:#fafafa"/><path d="M103.77,311.21c1,8.57,3.76,17,9.82,23.11,15.78,16,53,15.85,74.46,14.27-1.61-7.79-5.36-16.77-11.17-27.08C176.88,321.51,132.25,324.63,103.77,311.21Z" style="fill:#596e72"/><path d="M157.71,212.33a30.09,30.09,0,0,0,14.5,5.27c8,.46,12.31.69,16.59,1.38s13.8,8.67,12.4,10.1-13.32-1-15.92-1.05-4,3-7,2.76l-22.64-1.95S153.5,215.73,157.71,212.33Z" style="fill:#bb7058"/><path d="M85.38,207c7.47,14.07,21.8,18.18,21.8,18.18s20.15,8.46,48,5.18c0,0,3.6-10.7,2.26-20.79,0,0-35-11.4-37.12-17.42-2.68-7.47,3.78-21.71,4.11-22.44-.57.66-9.54,13.15-8.08,25.5.77,6.59,12.07,11.78,20.77,15a3.09,3.09,0,0,1-.61,6C123.35,218.11,101.76,218.81,85.38,207Z" style="fill:#151823"/><path d="M167.19,470.16l-8.21,18s18.14,22.12,27.4,26.75,24.3,4.63,27.77,1.74,1.35-16.92-5.78-22.73A69.05,69.05,0,0,0,195,485.28l2-7.31S176.35,476.34,167.19,470.16Z" style="fill:#1f1629"/><path d="M175.56,355c23.5,4.79,38.33,20.05,44.2,27.28.72-4.13,1.3-8.07,1.74-11.69,0,0-12.58-18-17.41-23.72,0,0-15-19-27.21-25.38C176.88,321.51,176.4,335.42,175.56,355Z" style="fill:#596e72"/><rect x="513.23" y="266.91" width="22.08" height="287.69" style="fill:#474768"/><rect x="36.37" y="266.91" width="22.08" height="287.69" style="fill:#474768"/><path d="M4.66,238.17H567a4.43,4.43,0,0,1,4.67,4.13v20.48a4.43,4.43,0,0,1-4.67,4.13H4.66A4.42,4.42,0,0,1,0,262.78V242.3A4.42,4.42,0,0,1,4.66,238.17Z" style="fill:#475e65"/></svg>