<svg xmlns="http://www.w3.org/2000/svg" viewBox="0 0 147.67 470.04"><title>woman</title><rect x="115.28" y="430.38" width="20.6" height="17.86" transform="translate(-40.51 13.66) rotate(-5.36)" style="fill:#bb7058"/><rect x="61.51" y="430.38" width="20.6" height="17.86" transform="translate(-40.75 8.64) rotate(-5.36)" style="fill:#bb7058"/><path d="M85.33,442.75a150.84,150.84,0,0,1-27.35,0s-7.19,4.63-18.89,10.48C29.24,458.15,32.43,470,32.43,470H86.89A166.87,166.87,0,0,0,85.33,442.75Z" style="fill:#3f284c"/><path d="M47.4,91.59s-8.58,8.25-17.88-1.93c-6.91-7.57,11.29-24.76,8.3-35.89C34.15,40.1,26.92,8.1,54.44,1.11c28.35-7.21,26,22.82,46.86,30.8s45.39,18.22,25.68,47C127,78.91,81.74,67.89,47.4,91.59Z" style="fill:#efc72f"/><path d="M53.82,63.07a11.41,11.41,0,0,0,1.06-13.94,23.07,23.07,0,0,1,10.56-8.48c3-1.27,6.72-.68,10.68.75l6.82-4.47s6.27,7.32,20.39,10.44c17.58,3.9,17.61,14.75,12,24.78-2,3.49-6.7,2.95-12.05.76C88.47,82.09,49,92.3,45.85,84.67,42,75.53,47.84,70.22,53.82,63.07Z" style="fill:#daaf3d"/><path d="M43.89,142.4,24.62,130.77s-6.35,19.91-3.24,28.38c1.32,3.62,10.4,7.44,12,7.15a39.79,39.79,0,0,0,8.89-3.13L29.37,153.8Z" style="fill:#bb7058"/><path d="M46,305.29c2.66,44.86,13.29,126.58,13.29,126.58a43.8,43.8,0,0,0,23.59,0S80.64,337.19,80,321.24c-1.1-26.35,5.81-68.44,5.81-68.44s7.37,52.49,10.7,75.75,16.94,104.67,16.94,104.67a51.16,51.16,0,0,0,10.42,1.7c8.33.46,12.84-1.7,12.84-1.7s-5.32-76.53-7.08-108S131,195.32,131,195.32L46,198S44.07,273.45,46,305.29Z" style="fill:#474768"/><path d="M138.94,442.75a151,151,0,0,1-27.36,0s-7.18,4.63-18.89,10.48C82.85,458.15,86,470,86,470h54.46A166.21,166.21,0,0,0,138.94,442.75Z" style="fill:#3f284c"/><path d="M85.77,252.8s7.37,52.49,10.7,75.75,16.94,104.67,16.94,104.67a51.16,51.16,0,0,0,10.42,1.7c-17.81-76.45-35-210-35-210Z" style="fill:#3f284c"/><path d="M146.64,158.1c-3.88,10.86-12.29,14.62-12.29,14.62v26.73a110.61,110.61,0,0,1-11.93,2.6c-36.84,6.13-80.55-2.6-80.55-2.6.88-18.57,1.77-53,1.77-53l-21-14.62s4-14.4,9.35-30.27C38.6,82,54.87,71.05,54.87,71.05c16.8-8.07,51.07-9.38,51.07-9.38s11,.37,26.19,20.82C145.91,101.06,149.8,149.25,146.64,158.1Z" style="fill:#596e72"/><path d="M43.89,139.47s4.9-17.14,6.53-24.67l-1.53,26.36Z" style="fill:#485b5e"/><path d="M65.74,53.17a34,34,0,0,1,2.83,9.47s-4.17,2.87-13.69,8.41c0,0,1,.46,2.7,1.1,4.5,1.66,14.07,4.47,24.11,2.78,11.69-2,24.25-13.26,24.25-13.26s-10.63-4-18.15-4.34L82.35,45a40.6,40.6,0,0,0,.59-8.1C71.67,33.1,65.72,22.8,65.72,22.8c-5.62,13-17.78,16.62-22.23,17.52a19.9,19.9,0,0,0,3.59,5.16C52.39,50.9,62.08,54,62.92,54a8.19,8.19,0,0,0,2.14-.56l.58-.23.07,0A0,0,0,0,1,65.74,53.17Z" style="fill:#bb7058"/><path d="M3.43,118.06s3.79-.83,8.73,4.07C15.75,125.71,24,140,28,146.12c0,0,47.07-32.17,51-34.09,5.53-2.72,13.18-1.66,13.18-1.66L25.92,153.12Z" style="fill:#fafafa"/><path d="M106.33,157.11c-13.29,7.77-42.2,12-42.2,12,5.81,9,16.2,11.59,23.54,12.21L64,197.45l-40.6-43.89,69.44-45,26.81,38A65.25,65.25,0,0,1,106.33,157.11Z" style="fill:#e1db5b"/><path d="M54.88,71.05s1,.46,2.7,1.1A101.25,101.25,0,0,1,76,61.67L72.54,50.29l-6.8,2.88a34,34,0,0,1,2.83,9.47S64.4,65.51,54.88,71.05Z" style="fill:#b56340"/><path d="M64.25,169.75a15.55,15.55,0,0,1-6.44-.49c-1.17-.36-4.84-4-6.72-3.88s.22,5.54-.67,6.64-7.32,2-9,1.07l-4.66-5s-2.75,2.41-2.31,4.52,2.77,7.75,5.87,9.86,17.11,2.27,26.08-3.3A35.94,35.94,0,0,1,64.25,169.75Z" style="fill:#bb7058"/><path d="M134.35,172.72v26.73a110.61,110.61,0,0,1-11.93,2.6l.73-23A98.47,98.47,0,0,0,134.35,172.72Z" style="fill:#485b5e"/><path d="M124.71,134.51s-3.5,11.85-12.46,17.78c-11.8,7.81-32.23,13.5-51,14.89,0,0,0,12.1,4.23,16.59,0,0,38,.58,57.67-4.74,0,0,7.95-4.26,11.2-6.31,0,0-39.54,14.73-67.45-2.1,0,0,30.65-4.11,47.18-16.28A26.86,26.86,0,0,0,124.71,134.51Z" style="fill:#485b5e"/><polygon points="23.37 153.56 0 119 3.04 117.23 26.96 151.23 23.37 153.56" style="fill:#decc50"/></svg>