<svg xmlns="http://www.w3.org/2000/svg" viewBox="0 0 159.4 167.76"><title>dots-square</title><circle cx="9.28" cy="9" r="9" style="fill:#faf1da"/><circle cx="44.56" cy="9" r="9" style="fill:#faf1da"/><circle cx="79.84" cy="9" r="9" style="fill:#faf1da"/><circle cx="115.12" cy="9" r="9" style="fill:#faf1da"/><circle cx="150.4" cy="9" r="9" style="fill:#faf1da"/><circle cx="9.21" cy="46.44" r="9" style="fill:#faf1da"/><circle cx="44.49" cy="46.44" r="9" style="fill:#faf1da"/><circle cx="79.77" cy="46.44" r="9" style="fill:#faf1da"/><circle cx="115.05" cy="46.44" r="9" style="fill:#faf1da"/><circle cx="150.33" cy="46.44" r="9" style="fill:#faf1da"/><circle cx="9.14" cy="83.88" r="9" style="fill:#faf1da"/><circle cx="44.42" cy="83.88" r="9" style="fill:#faf1da"/><circle cx="79.7" cy="83.88" r="9" style="fill:#faf1da"/><circle cx="114.98" cy="83.88" r="9" style="fill:#faf1da"/><circle cx="150.26" cy="83.88" r="9" style="fill:#faf1da"/><circle cx="9.07" cy="121.32" r="9" style="fill:#faf1da"/><circle cx="44.35" cy="121.32" r="9" style="fill:#faf1da"/><circle cx="79.63" cy="121.32" r="9" style="fill:#faf1da"/><circle cx="114.91" cy="121.32" r="9" style="fill:#faf1da"/><circle cx="150.19" cy="121.32" r="9" style="fill:#faf1da"/><circle cx="9" cy="158.76" r="9" style="fill:#faf1da"/><circle cx="44.28" cy="158.76" r="9" style="fill:#faf1da"/><circle cx="79.56" cy="158.76" r="9" style="fill:#faf1da"/><circle cx="114.84" cy="158.76" r="9" style="fill:#faf1da"/><circle cx="150.12" cy="158.76" r="9" style="fill:#faf1da"/></svg>