<svg xmlns="http://www.w3.org/2000/svg" viewBox="0 0 91.49 240.71"><title>flower</title><path d="M59,178H33.61s-19.56-14.69-22.16-37c-2.26-19.4,23.91-19.5.24-48.55C-11.74,63.73,1.31,6.58,39.59,2.26,74.76-1.7,73,40.14,58,68.05s-1.4,42.19,13,66C83.45,154.76,59,178,59,178Z" style="fill:#799b7d"/><path d="M51.59,178H48.52c1.52-8.93,2.91-26-4.46-41.88C35.81,118.4,31.15,103.65,29.42,89.7a94.61,94.61,0,0,1,6.46-48.46,1.49,1.49,0,1,1,2.77,1.12c-14.32,35.36-3.93,66.6,8.12,92.5C54.42,151.3,53.18,168.59,51.59,178Z" style="fill:#fff;opacity:0.30000000000000004"/><path d="M66,151.11c12.33,19.1-4,26.89-4,26.89H42.11c6-12.32-4.48-15.1-8-29.22-5.55-22.46,17.94-25.58,10.49-43.85S56,55.86,76.76,59.74C93.2,62.81,71,82.34,88,102.6S54.74,133.61,66,151.11Z" style="fill:#c9c268"/><path d="M57.14,162.79c3.38,5.68,2,11.14-.35,15.21H54a14.81,14.81,0,0,0,2.72-8.06A11.43,11.43,0,0,0,55,164.06c-6.92-11.65-12.47-24.37,2-40.35,8.69-9.6,7.82-15,6.81-21.26-.55-3.45-1.13-7-.26-11.48a1.25,1.25,0,0,1,2.48.25,1,1,0,0,1,0,.24,28.28,28.28,0,0,0,.27,10.59c1.06,6.6,2.06,12.84-7.42,23.34C45.51,140.12,50.43,151.48,57.14,162.79Z" style="fill:#fff;opacity:0.30000000000000004"/><rect x="20.19" y="176" width="56.81" height="64.71" rx="5.51" style="fill:#daaf3d"/><rect x="20.19" y="200.61" width="56.81" height="15.49" style="fill:#efc72f"/></svg>