<svg xmlns="http://www.w3.org/2000/svg" viewBox="0 0 187.89 577.21"><title>man</title><path d="M109,48.43c-.93,5.85-12.2,18.29-14.4,19.28s-9.89.86-9.89.86L83,86.72l-6.7.4L60.74,88l3.34-23.27C53.15,22.42,69,9.16,88.3,11.72,106.93,14.2,109.91,42.59,109,48.43Z" style="fill:#bb7058"/><path d="M64.08,64.77l5.78-1.59s-4.24-15.34,3.4-20.1S85.73,47.2,85.73,47.2s1.57-11.46,10-13.34,36.47-10.24,27.58-26.7-21.64,0-21.19,4.76c0,0-17.22-10.93-32.68,1C53.36,25.32,57.94,51.06,64.08,64.77Z" style="fill:#3a2c4a"/><polygon points="84.68 68.58 83.02 86.72 76.32 87.12 78.48 67.73 84.68 68.58" style="fill:#9e5d37"/><path d="M80.37,142.33s-12.25,17-15.18,24.94c-.71,1.95-2,7.78-3.49,15.45-4.56,23.34-11.31,63.67-11.31,63.67s1.45,1.93,2.1,2.92.13,8.43-1.64,10.62-10.68-.67-12.7-2.06-5.23-4.1-4.47-7.49a22.44,22.44,0,0,1,2.33-6c-3.13-33.47,1.68-66.1,2.8-73.34.65-4.22,1.32-8.32,2-12.23,3.05-17.75,6.08-31.29,6.08-31.29Z" style="fill:#bb7058"/><path d="M80.37,142.33s-12.25,17-15.18,24.94c-.71,1.95-2,7.78-3.49,15.45L40.8,158.8c3.05-17.75,6.08-31.29,6.08-31.29Z" style="fill:#9e5d37"/><path d="M90.6,92c-1-4.73-6.93-14.07-18.11-13.67-11.69.42-23.4,16.19-34.58,72,0,0,20.12,7.17,35.36,8C73.27,158.41,94.68,111.25,90.6,92Z" style="fill:#c7c268"/><rect x="100.4" y="528.58" width="25.57" height="24.18" transform="translate(190.19 1087.67) rotate(-176.19)" style="fill:#bb7058"/><rect x="13.49" y="519.25" width="25.57" height="24.18" transform="translate(-143.14 1035.64) rotate(-158.6)" style="fill:#bb7058"/><path d="M91.54,408.48a109.68,109.68,0,0,1-3.39,10.76C76.8,451.2,43.09,529.9,43.09,529.9c-14.23-2.15-28.78-9.46-28.78-9.46,10.3-21,33.33-102.69,35.95-112.68,1.92-7.27,2.13-24.56.87-48.93-.47-9.08-1.14-19.17-2-30.08a553.69,553.69,0,0,1-.61-80.95l22.83.35,22,120.12S97.49,382,91.54,408.48Z" style="fill:#6b8976"/><path d="M91.54,408.48a109.68,109.68,0,0,1-3.39,10.76l-37-60.41c-.47-9.08-1.14-19.17-2-30.08a553.69,553.69,0,0,1-.61-80.95l22.83.35,22,120.12S97.49,382,91.54,408.48Z" style="fill:#596e72"/><path d="M122.9,247.8s14.58,79.94,18.4,138.07c3.2,48.7-11.48,145.78-11.48,145.78s-13.14,4.91-32.06,0c0,0,8.16-104.33.44-131.41C87.4,362.39,62.48,308.54,59,247.8Z" style="fill:#6b8976"/><path d="M128.08,253.77S87.77,262.52,44.31,252c0,0,2.38-81.28,3.77-128.95s14.11-47.83,25.5-45.73c17.58,3.24,30.22,14,41,40.83C121.33,135,125.2,168.87,127,201.31c.71,12.91,1.07,25.57,1.17,36.86C128.19,243.76,128.16,249,128.08,253.77Z" style="fill:#d6ce57"/><path d="M128.14,238.17c-22.77-21.53-48.6-47.06-54.47-59C59,149.33,57,116.39,57,116.39s17.75-1.75,32.47,31.89c8.11,18.55,24.47,38.69,37.53,53C127.68,214.22,128,226.88,128.14,238.17Z" style="fill:#c1ba66"/><path d="M95.91,544.16s19.9,2.21,33.13,0c0,0,1.22,6.86,4.93,7.44,5.29.82,18.64.51,25.06,5.24,10.73,7.91,8.07,20.37,8.07,20.37H94A202.37,202.37,0,0,1,95.91,544.16Z" style="fill:#1f1629"/><path d="M187.23,212.39,163,242l-6.14,7.5-12.7,15.56a3,3,0,0,1-4.17.42l-34.77-28.43a2.94,2.94,0,0,1-.42-4.14l12.74-15.6,8.64-10.57,21.68-26.52a2.94,2.94,0,0,1,4.14-.42l34.78,28.43A2.94,2.94,0,0,1,187.23,212.39Z" style="fill:#3b223d"/><path d="M10.16,529.9s15.43,8,29.08,9.34c0,0-.85,7.29,3.35,9.83,6.31,3.81,17.52,3,23.94,7.77,10.73,7.91,8.07,20.37,8.07,20.37h-35a6.87,6.87,0,0,1-2.72-.57L0,560.68S3.68,544.16,10.16,529.9Z" style="fill:#1f1629"/><path d="M165,247.57c-2.33.79-6.22-.45-8.47-3.09a17.07,17.07,0,0,1-3-6.94c-25.76-15.94-55.87-44.51-65-54-1-1-1.77-1.85-2.23-2.4-4.77-5.52-17-29.79-17-29.79l29.6-10.72s3.45,11.21,7.13,19.85a49.53,49.53,0,0,0,3.64,7.31c4.58,7.11,53.47,61.61,53.47,61.61a31.83,31.83,0,0,1,3.55-.19c1.18.06,5.76,4.31,6.43,7S167.27,246.79,165,247.57Z" style="fill:#bb7058"/><path d="M105.94,160.46,88.47,183.52c-1-1-1.77-1.85-2.23-2.4-4.77-5.52-17-29.79-17-29.79l29.6-10.72S102.26,151.82,105.94,160.46Z" style="fill:#9e5d37"/><path d="M84.46,88.89c-3.53-3.3-13.75-7.54-22.66-.79-9.33,7.05-13.85,36,13,78.83,0,0,20.59-5.68,33.55-13.74C108.4,153.19,98.85,102.29,84.46,88.89Z" style="fill:#e1db5b"/></svg>