<svg xmlns="http://www.w3.org/2000/svg" viewBox="0 0 941.22 969.59"><title>picture_app_top</title><polygon points="120.13 0 940.54 795.16 941.22 0 120.13 0" style="fill:#fff3dc"/><rect x="555.62" y="192.42" width="385.6" height="597.29" style="fill:#fec900"/><rect x="572.24" y="208.91" width="352.37" height="91.57" style="fill:#ffe499"/><rect x="572.24" y="316.97" width="352.37" height="91.57" style="fill:#ffe499"/><rect x="572.24" y="425.03" width="352.37" height="91.57" style="fill:#ffe499"/><rect x="572.24" y="533.09" width="352.37" height="91.57" style="fill:#ffe499"/><rect x="572.24" y="641.16" width="352.37" height="91.57" style="fill:#ffe499"/><g style="opacity:0.99"><rect x="753.42" y="330.85" width="9.61" height="77.69" rx="2.47" style="fill:#fff"/><rect x="763.03" y="330.85" width="16.74" height="77.69" rx="2.47" style="fill:#cec462"/><rect x="840.84" y="330.85" width="11.8" height="77.69" rx="2.47" style="fill:#cec462"/><rect x="796.52" y="330.85" width="10.83" height="77.69" rx="2.47" style="fill:#e5dd4f"/><path d="M807.35,339.57v2.83H796.52v-2.83Zm-10.83,5.68v2.83h10.83v-2.83Zm0,46.05v2.85h10.83V391.3Zm0,5.68v2.85h10.83V397Z" style="fill:#7cb342;opacity:0.30000000000000004"/><rect x="779.77" y="330.85" width="16.75" height="77.69" rx="2.47" style="fill:#fec900"/><ellipse cx="788.15" cy="369.69" rx="4.34" ry="9.46" style="fill:#fdd835"/><rect x="824.1" y="330.85" width="16.74" height="77.69" rx="2.47" style="fill:#fff"/><rect x="807.35" y="330.85" width="16.75" height="77.69" rx="2.47" style="fill:#fec900"/><path d="M818.65,350.81v37.77a2.93,2.93,0,0,1-5.85,0V350.81a2.93,2.93,0,0,1,5.85,0Zm-2.92-8.31a2.93,2.93,0,1,0-2.93-2.93A2.93,2.93,0,0,0,815.73,342.5Zm0,54.4a2.93,2.93,0,1,0,2.92,2.93A2.93,2.93,0,0,0,815.73,396.9Z" style="fill:#fdd835"/></g><g style="opacity:0.99"><rect x="636.12" y="438.91" width="9.61" height="77.69" rx="2.47" style="fill:#fff"/><rect x="645.73" y="438.91" width="16.74" height="77.69" rx="2.47" style="fill:#cec462"/><path d="M662.47,447.63v5.68H645.73v-5.68Zm-16.74,54.58v5.68h16.74v-5.68Z" style="fill:#d8cb6c"/><rect x="723.54" y="438.91" width="11.8" height="77.69" rx="2.47" style="fill:#cec462"/><path d="M735.35,447.63v5.68H723.54v-5.68Zm-11.81,54.58v5.68h11.81v-5.68Z" style="fill:#d8cb6c"/><rect x="679.22" y="438.91" width="10.83" height="77.69" rx="2.47" style="fill:#cec462"/><path d="M690.05,447.63v2.84H679.22v-2.84Zm-10.83,5.68v2.84h10.83v-2.84Zm0,46.05v2.85h10.83v-2.85Zm0,5.68v2.85h10.83V505Z" style="fill:#d8cb6c"/><rect x="662.47" y="438.91" width="16.75" height="77.69" rx="2.47" style="fill:#e5dd4f"/><ellipse cx="670.84" cy="477.76" rx="4.34" ry="9.46" style="fill:#7cb342;opacity:0.30000000000000004"/><rect x="706.8" y="438.91" width="16.74" height="77.69" rx="2.47" style="fill:#fff"/><rect x="690.05" y="438.91" width="16.75" height="77.69" rx="2.47" style="fill:#fec900"/><path d="M701.35,458.87v37.77a2.93,2.93,0,0,1-5.85,0V458.87a2.93,2.93,0,0,1,5.85,0Zm-2.93-8.31a2.93,2.93,0,1,0-2.92-2.93A2.93,2.93,0,0,0,698.42,450.56Zm0,54.4a2.93,2.93,0,1,0,2.93,2.93A2.93,2.93,0,0,0,698.42,505Z" style="fill:#fdd835"/></g><rect x="846.26" y="655.03" width="16.75" height="77.69" rx="2.47" style="fill:#fff"/><rect x="863.01" y="655.03" width="16.75" height="77.69" rx="2.47" style="fill:#cec462"/><ellipse cx="871.39" cy="693.88" rx="4.34" ry="9.46" style="fill:#7cb342;opacity:0.5"/><rect x="879.76" y="655.03" width="16.74" height="77.69" rx="2.47" style="fill:#fec900"/><path d="M879.76,718.33h16.75V724H879.76Zm13.87-24.45a5.5,5.5,0,1,0-5.49,5.49A5.49,5.49,0,0,0,893.63,693.88Zm-13.87-30.13v5.69h16.75v-5.69Z" style="fill:#fdd835"/><rect x="896.51" y="655.03" width="16.75" height="77.69" rx="2.47" style="fill:#e5dd4f"/><path d="M907.81,675v37.76a2.93,2.93,0,1,1-5.85,0V675a2.93,2.93,0,1,1,5.85,0Zm-2.93-8.32a2.93,2.93,0,1,0-2.92-2.93A2.93,2.93,0,0,0,904.88,666.68Zm0,54.41a2.93,2.93,0,1,0,2.93,2.92A2.92,2.92,0,0,0,904.88,721.09Z" style="fill:#7cb342;opacity:0.30000000000000004"/><rect x="581.38" y="330.85" width="16.75" height="77.69" rx="2.47" style="fill:#cec462"/><rect x="598.13" y="330.85" width="16.74" height="77.69" rx="2.47" style="fill:#fec900"/><path d="M614.87,339.57v5.68H598.13v-5.68Zm-16.74,54.58v5.68h16.74v-5.68Z" style="fill:#fec900"/><rect x="614.87" y="330.85" width="16.75" height="77.69" rx="2.47" style="fill:#fff"/><rect x="631.63" y="330.85" width="16.75" height="77.69" rx="2.47" style="fill:#e5dd4f"/><ellipse cx="640" cy="369.69" rx="4.34" ry="9.46" style="fill:#7cb342;opacity:0.30000000000000004"/><rect x="648.38" y="330.85" width="16.74" height="77.69" rx="2.47" style="fill:#cec462"/><rect x="665.12" y="330.85" width="16.75" height="77.69" rx="2.47" style="fill:#fec900"/><path d="M676.42,350.81v37.77a2.93,2.93,0,0,1-5.85,0V350.81a2.93,2.93,0,0,1,5.85,0Zm-2.93-8.31a2.93,2.93,0,1,0-2.92-2.93A2.93,2.93,0,0,0,673.49,342.5Zm0,54.4a2.93,2.93,0,1,0,2.93,2.93A2.93,2.93,0,0,0,673.49,396.9Z" style="fill:#fdd835"/><rect x="651.78" y="222.84" width="9.61" height="77.69" rx="2.47" transform="translate(-31.63 100.61) rotate(-8.56)" style="fill:#fec900"/><rect x="590.27" y="222.79" width="16.74" height="77.69" rx="2.47" style="fill:#fec900"/><path d="M607,231.51v5.68H590.27v-5.68Zm-16.74,54.58v5.68H607v-5.68Z" style="fill:#fec900"/><rect x="634.59" y="222.79" width="11.8" height="77.69" rx="2.47" style="fill:#cec462"/><rect x="607.02" y="222.79" width="10.83" height="77.69" rx="2.47" style="fill:#fff"/><rect x="700.34" y="226.75" width="16.75" height="77.69" rx="2.47" transform="translate(-14.73 487.95) rotate(-37.63)" style="fill:#fec900"/><ellipse cx="708.71" cy="265.59" rx="4.34" ry="9.46" transform="translate(-14.73 487.95) rotate(-37.63)" style="fill:#fdd835"/><rect x="617.85" y="222.79" width="16.74" height="77.69" rx="2.47" style="fill:#e5dd4f"/><path d="M617.85,286.09h16.74v5.68H617.85Zm13.86-24.46a5.49,5.49,0,1,0-5.49,5.5A5.49,5.49,0,0,0,631.71,261.63Zm-13.86-30.12v5.68h16.74v-5.68Z" style="fill:#7cb342;opacity:0.30000000000000004"/><rect x="672.32" y="223.86" width="16.75" height="77.69" rx="2.47" transform="translate(-46.35 324.08) rotate(-25.93)" style="fill:#fff"/><rect x="811.71" y="438.97" width="9.61" height="77.69" rx="2.47" transform="translate(-62.01 126.81) rotate(-8.56)" style="fill:#e5dd4f"/><rect x="750.2" y="438.91" width="16.74" height="77.69" rx="2.47" style="fill:#fec900"/><path d="M766.94,447.63v5.68H750.2v-5.68ZM750.2,502.21v5.68h16.74v-5.68Z" style="fill:#fdd835"/><rect x="794.52" y="438.91" width="11.8" height="77.69" rx="2.47" style="fill:#fec900"/><path d="M806.33,447.63v5.68H794.52v-5.68Zm-11.81,54.58v5.68h11.81v-5.68Z" style="fill:#fdd835"/><rect x="766.95" y="438.91" width="10.83" height="77.69" rx="2.47" style="fill:#fff"/><rect x="860.27" y="442.87" width="16.75" height="77.69" rx="2.47" transform="translate(-113.42 630.56) rotate(-37.63)" style="fill:#e5dd4f"/><ellipse cx="868.64" cy="481.72" rx="4.34" ry="9.46" transform="translate(-113.42 630.56) rotate(-37.63)" style="fill:#7cb342;opacity:0.30000000000000004"/><rect x="777.78" y="438.91" width="16.74" height="77.69" rx="2.47" style="fill:#cec462"/><path d="M777.78,502.21h16.74v5.68H777.78Zm13.86-24.45a5.49,5.49,0,1,0-5.49,5.49A5.49,5.49,0,0,0,791.64,477.76Zm-13.86-30.13v5.68h16.74v-5.68Z" style="fill:#d8cb6c"/><rect x="832.25" y="439.99" width="16.75" height="77.69" rx="2.47" transform="translate(-124.75 415.77) rotate(-25.93)" style="fill:#fff"/><rect x="721.08" y="252.83" width="77.69" height="16.75" rx="2.47" transform="translate(418.22 988.5) rotate(-83.8)" style="fill:#cec462"/><rect x="772.2" y="222.79" width="16.74" height="77.69" rx="2.47" style="fill:#e5dd4f"/><path d="M788.94,231.51v5.68H772.2v-5.68ZM772.2,286.09v5.68h16.74v-5.68Z" style="fill:#7cb342;opacity:0.30000000000000004"/><rect x="788.94" y="222.79" width="16.75" height="77.69" rx="2.47" style="fill:#cec462"/><path d="M805.69,231.51v2.83H788.94v-2.83Zm-16.75,5.68V240h16.75v-2.83Zm0,46.05v2.85h16.75v-2.85Zm0,5.68v2.85h16.75v-2.85Z" style="fill:#d8cb6c"/><rect x="867.23" y="222.8" width="16.75" height="77.69" rx="2.47" transform="translate(-37.72 292.98) rotate(-18.6)" style="fill:#e5dd4f"/><path d="M873.94,230.43l.91,2.68L859,238.46l-.91-2.69Zm2.44,59.75.9,2.7,15.88-5.34-.9-2.7Z" style="fill:#7cb342;opacity:0.30000000000000004"/><rect x="884.97" y="222.8" width="16.75" height="77.69" rx="2.47" transform="translate(-36.79 298.63) rotate(-18.6)" style="fill:#fff"/><rect x="805.69" y="222.79" width="16.75" height="77.69" rx="2.47" style="fill:#fff"/><ellipse cx="814.07" cy="261.63" rx="4.34" ry="9.46" style="fill:#ffe499;opacity:0.25"/><rect x="822.44" y="222.79" width="16.74" height="77.69" rx="2.47" style="fill:#fec900"/><path d="M822.44,286.09h16.75v5.68H822.44Zm13.87-24.46a5.5,5.5,0,1,0-5.49,5.5A5.49,5.49,0,0,0,836.31,261.63Zm-13.87-30.12v5.68h16.75v-5.68Z" style="fill:#fdd835"/><rect x="839.19" y="222.79" width="16.75" height="77.69" rx="2.47" style="fill:#cec462"/><rect x="560.49" y="577.02" width="77.69" height="16.75" rx="2.47" transform="translate(-47.33 1118.04) rotate(-83.8)" style="fill:#cec462"/><rect x="611.6" y="546.97" width="16.74" height="77.69" rx="2.47" style="fill:#e5dd4f"/><path d="M628.35,555.69v5.68H611.6v-5.68ZM611.6,610.27V616h16.75v-5.68Z" style="fill:#7cb342;opacity:0.30000000000000004"/><rect x="628.35" y="546.97" width="16.75" height="77.69" rx="2.47" style="fill:#fff"/><rect x="706.64" y="546.99" width="16.75" height="77.69" rx="2.47" transform="translate(-149.52 258.69) rotate(-18.6)" style="fill:#fec900"/><path d="M713.35,554.61l.9,2.69-15.88,5.34-.9-2.69Zm-14.07,10.73.91,2.69,15.87-5.35-.9-2.69ZM714,609l.91,2.69,15.88-5.34-.91-2.7Zm1.81,5.38.91,2.7,15.88-5.35-.91-2.69Z" style="fill:#fdd835"/><rect x="724.37" y="546.99" width="16.75" height="77.69" rx="2.47" transform="translate(-148.59 264.34) rotate(-18.6)" style="fill:#f9a825"/><path d="M731.08,554.61l.9,2.69-15.87,5.34L715.2,560ZM717,565.34l.91,2.69,15.88-5.35-.91-2.69ZM731.7,609l.91,2.69,15.88-5.34-.91-2.7Zm1.82,5.38.9,2.7,15.88-5.35-.91-2.69Z" style="fill:#fdd835"/><rect x="645.1" y="546.97" width="16.75" height="77.69" rx="2.47" style="fill:#fec900"/><ellipse cx="653.48" cy="585.82" rx="4.34" ry="9.46" style="fill:#fdd835"/><rect x="661.85" y="546.97" width="16.74" height="77.69" rx="2.47" style="fill:#e5dd4f"/><path d="M661.85,610.27H678.6V616H661.85Zm13.87-24.45a5.5,5.5,0,1,0-5.5,5.49A5.5,5.5,0,0,0,675.72,585.82Zm-13.87-30.13v5.68H678.6v-5.68Z" style="fill:#7cb342;opacity:0.30000000000000004"/><rect x="678.6" y="546.97" width="16.75" height="77.69" rx="2.47" style="fill:#cec462"/><path d="M689.9,566.94V604.7a2.93,2.93,0,0,1-5.86,0V566.94a2.93,2.93,0,1,1,5.86,0ZM687,558.62a2.93,2.93,0,1,0-2.93-2.93A2.93,2.93,0,0,0,687,558.62ZM687,613A2.93,2.93,0,1,0,689.9,616,2.93,2.93,0,0,0,687,613Z" style="fill:#d8cb6c"/><rect x="817.88" y="607.91" width="77.69" height="16.75" rx="2.47" style="fill:#fff"/><rect x="817.88" y="591.16" width="77.69" height="16.75" rx="2.47" style="fill:#fec900"/><ellipse cx="856.73" cy="599.54" rx="9.46" ry="4.34" style="fill:#fdd835"/><rect x="817.88" y="574.42" width="77.69" height="16.74" rx="2.47" style="fill:#e5dd4f"/><path d="M881.18,591.16V574.42h5.68v16.74ZM856.73,577.3a5.49,5.49,0,1,0,5.49,5.49A5.49,5.49,0,0,0,856.73,577.3ZM826.6,591.16h5.68V574.42H826.6Z" style="fill:#7cb342;opacity:0.30000000000000004"/><rect x="817.88" y="557.67" width="77.69" height="16.75" rx="2.47" style="fill:#cec462"/><path d="M837.85,563.12h37.76a2.93,2.93,0,0,1,0,5.85H837.85a2.93,2.93,0,1,1,0-5.85ZM829.53,566A2.93,2.93,0,1,0,826.6,569,2.93,2.93,0,0,0,829.53,566Zm54.41,0a2.93,2.93,0,1,0,2.92-2.92A2.93,2.93,0,0,0,883.94,566Z" style="fill:#d8cb6c"/><rect x="21.7" y="900.03" width="61.07" height="69.56" rx="5.92" style="fill:#eab22c"/><path d="M63.45,900H36.13s-21-15.78-23.82-39.74c-2.43-20.86,25.7-21,.25-52.2-25.18-30.89-11.16-92.31,30-97,37.8-4.26,35.89,40.72,19.82,70.71s-1.51,45.36,13.93,71C89.7,875.06,63.45,900,63.45,900Z" style="fill:#679d7c"/><path d="M55.46,900H52.15c1.64-9.6,3.13-28-4.79-45-8.87-19-13.87-34.91-15.74-49.9a101.78,101.78,0,0,1,7-52.09,1.61,1.61,0,0,1,3,1.2c-15.4,38-4.23,71.6,8.72,99.44C58.49,871.34,57.16,889.92,55.46,900Z" style="fill:#fff;opacity:0.30000000000000004"/><path d="M71,871.13C84.24,891.66,66.7,900,66.7,900H45.27c6.43-13.24-4.82-16.22-8.57-31.4-6-24.15,19.28-27.5,11.28-47.14s12.24-52.74,34.53-48.58c17.67,3.31-6.17,24.29,12,46.08S58.84,852.32,71,871.13Z" style="fill:#cec462"/><path d="M61.42,883.68c3.63,6.11,2.1,12-.38,16.35H58a15.89,15.89,0,0,0,2.93-8.65,12.32,12.32,0,0,0-1.8-6.33c-7.44-12.53-13.4-26.19,2.14-43.37,9.34-10.33,8.4-16.13,7.32-22.86-.6-3.71-1.21-7.54-.27-12.33a1.34,1.34,0,0,1,2.65.27,2.11,2.11,0,0,1,0,.25c-.85,4.35-.27,7.92.29,11.39,1.14,7.09,2.21,13.8-8,25.08C48.92,859.32,54.21,871.53,61.42,883.68Z" style="fill:#fff;opacity:0.30000000000000004"/><rect x="21.7" y="926.49" width="61.07" height="16.65" style="fill:#fec900"/><path d="M760.72,782.36l5.63,28.24,31.71,159h13.79l-31.7-159L774,779.72ZM681.2,969.59H695l31.7-159,5.63-28.24-13.26-2.64-6.16,30.88Z" style="fill:#eab22c"/><path d="M780.15,810.6h-13.8l-5.63-28.24L774,779.72Zm-67.24,0H726.7l5.63-28.24-13.26-2.64Z" style="fill:#c2703a;opacity:0.5"/><polygon points="647.7 915.99 646.86 937.03 614.19 935.02 617.04 911.97 647.7 915.99" style="fill:#b35d31"/><path d="M794.41,735.33c-.09,8.63-1.88,17.44-7.49,24-12.89,15-59.47,17.43-85.58,17.58a25.6,25.6,0,0,0-24.07,17.37c-10.21,30-16.11,80.42-27.14,125,0,0-15.71,5.23-36.42-3.81,0,0,11.59-119.94,32.08-163.62,15.58-33.21,38.68-40.35,56.81-43.42s70.75-3.68,88.82-8C791.42,700.44,794.57,720.31,794.41,735.33Z" style="fill:#4e6e73"/><path d="M649.48,931.91s-22.69,2.53-37.77,0c0,0-1.39,7.82-5.63,8.48-6,.94-21.25.59-28.57,6-12.23,9-9.2,23.21-9.2,23.21h83.31A230.53,230.53,0,0,0,649.48,931.91Z" style="fill:#1c0f25"/><path d="M584.52,632.69c1.76,2.19,6.26,3.37,10,2.19s7.13-4.84,7.13-4.84c32.95,2.14,57.55,1,75.14-3.8,11.5-3.16,45.37-22.92,45.37-22.92l-22-28.4s-16.39,16.58-30,23.14-72.82,18.28-72.82,18.28a34.69,34.69,0,0,0-3.31-2.35c-1.17-.66-8.17.63-10.48,2.84S582.76,630.53,584.52,632.69Z" style="fill:#b35d31"/><path d="M748.42,523.49c5.26-1.63,17.85-.94,23.67,10.4,6.1,11.87-3.57,43.8-52.4,74.52,0,0-18.34-16-27.67-30.71C692,577.7,727,530.14,748.42,523.49Z" style="fill:#ccc462"/><path d="M698.18,498.93c2.84,6.12,19.08,16.25,21.81,16.65s11.11-2.14,11.11-2.14l7.48,19.38,7.48-1.65,17.37-3.85-10.92-24.48c-1.22-49.85-22.77-59.44-43.11-50.62C689.74,460.75,695.32,492.81,698.18,498.93Z" style="fill:#d37156"/><path d="M752.5,502.84l-6.83.06s-.13-18.14-10-21-12.39,8.41-12.39,8.41-5.3-12.08-15.14-11.51S665,479,669.57,458.14s23.72-6.78,24.73-1.39c0,0,15.47-17.35,36.15-9.1C752,456.24,755,485.89,752.5,502.84Z" style="fill:#3c284a"/><polygon points="731.1 513.44 738.58 532.82 746.06 531.17 737.64 510.58 731.1 513.44" style="fill:#b35d31"/><path d="M710.82,724.24s46.8,4.66,94.65-12.89c0,0-3.26-75.28-14.34-128.51-13.65-65.66-28.89-69.42-41.53-65.55-19.48,6-25.59,18.24-34.34,50-2.21,8.13-3.29,18.84-3.63,31.15-.38,13.23.12,28.35.93,44.22.27,5.46.59,11,.93,16.63C714.35,674,717.31,700.05,710.82,724.24Z" style="fill:#e5dd4f"/><path d="M547.94,646.23l77.26,7a3.38,3.38,0,0,0,3.66-3.06l3.55-32.72a3.35,3.35,0,0,0-3-3.65l-77.28-6.94a3.35,3.35,0,0,0-3.64,3l-3.56,32.73A3.35,3.35,0,0,0,547.94,646.23Z" style="fill:#401d3b"/><path d="M712.56,642.67c54.67-40.73,56.93-92.58,56.93-92.58l-57.86,48.36C711.25,611.68,711.75,626.8,712.56,642.67Z" style="fill:#ccc462"/><path d="M584.59,647.86c1.86,2.12,6.41,3.1,10.15,1.75s6.9-5.18,6.9-5.18c33,.66,57.53-1.57,74.89-7.21,3.92-1.28,10.45-4.67,17.3-8.54,12.93-7.32,27-16.41,27-16.41L697.59,584.9s-3.89,4.32-9.44,9.53-12.81,11.36-19.45,15C655.55,616.49,596.79,631,596.79,631a32.72,32.72,0,0,0-3.42-2.2c-1.2-.61-8.13,1-10.33,3.31S582.75,645.78,584.59,647.86Z" style="fill:#d37156"/><path d="M688.15,594.43l5.68,34.25c12.93-7.32,27-16.41,27-16.41L697.59,584.9S693.7,589.22,688.15,594.43Z" style="fill:#b35d31"/><path d="M743.37,531.33c5.18-1.87,17.79-1.75,24.12,9.32,6.63,11.57-1.57,43.92-49,76.82,0,0-19.06-15.16-29-29.42C689.49,588.05,722.28,539,743.37,531.33Z" style="fill:#e5dd4f"/><polygon points="595.76 905.25 585.9 925.54 613.95 935.13 620.68 917.86 595.76 905.25" style="fill:#d37156"/><path d="M619.39,933.94s-21.93-6.31-34.92-14.4c0,0-4.26,6.71-8.43,5.7-5.93-1.43-19.87-7.56-28.7-5.36-14.74,3.68-17.35,18-17.35,18l77,31.75A229.76,229.76,0,0,0,619.39,933.94Z" style="fill:#1c0f25"/><path d="M590.12,907.78c1.1.83,2.2,1.61,3.27,2.35,12.11,8.26,22.7,10.83,27.18,11.59,1.46.25,2.27.31,2.27.31,17-39,43.89-98.2,57-127a25.58,25.58,0,0,1,25.66-14.92c26,2.42,72.6,4.59,86.89-9.05,4.76-4.53,7.43-10.6,8.83-17a57.26,57.26,0,0,0,1-6.07c1.64-14.94.47-35,.47-35-18.4,2.51-70.83-2.08-89.18-.83-2.86.21-5.83.49-8.91.95-16.7,2.47-36.05,10.07-51.9,36.67C628,791.14,590.12,907.78,590.12,907.78Z" style="fill:#5b8b76"/><path d="M704.61,713a146.55,146.55,0,0,1,95.54,43.06,23.88,23.88,0,0,0,1.67-5.12s.23-1.47.41-3c1.64-14.94.47-35,.47-35-18.4,2.51-70.83-2.08-89.18-.83C710.66,712.28,707.69,712.56,704.61,713Z" style="fill:#4e6e73"/><path d="M687.58,790.29h87.36a50.78,50.78,0,0,0,50.65-47l9.75-132.17h0A23.68,23.68,0,0,0,810,632.94L802,741.5a27.09,27.09,0,0,1-27,25.11H711.26a23.68,23.68,0,0,0-23.68,23.68Z" style="fill:#2c2920"/><polygon points="432.81 861.41 439.16 874.62 416.18 886.11 409.27 873.48 432.81 861.41" style="fill:#d37156"/><path d="M412.91,883.87l7.72,26.49s26.09-2.67,36.11-5.25,21.4-12.43,22.12-16.89-10.06-13.66-19.27-13.38a69,69,0,0,0-15.79,2.24l-3.31-6.82S423.87,882.52,412.91,883.87Z" style="fill:#1c0f25"/><rect x="304.38" y="789.41" width="18.35" height="168.64" style="fill:#eab22c"/><path d="M250.83,957.71l58.06-14.91a18.85,18.85,0,0,1,9.32,0l58.07,14.91a6.89,6.89,0,0,1,5.17,6.67v5.21H245.66v-5.21A6.88,6.88,0,0,1,250.83,957.71Z" style="fill:#c2703a"/><rect x="244.13" y="757.6" width="138.85" height="31.81" rx="5.35" style="fill:#2c2920"/><polygon points="367.87 688.17 370.45 714.78 334.23 693.37 367.87 688.17" style="fill:#4e6e73"/><path d="M362.57,541.45s11.85,11.39,24.69-2.68c9.54-10.44-15.59-34.17-11.46-49.54,5.07-18.87,15.05-63.06-22.94-72.71-39.15-9.95-36,31.51-64.71,42.52s-62.67,25.16-35.45,64.9C252.7,523.94,315.16,508.73,362.57,541.45Z" style="fill:#fec900"/><path d="M353.71,502.07a15.75,15.75,0,0,1-1.46-19.25s-4.28-7.35-14.58-11.71c-4.13-1.75-9.29-.94-14.75,1L313.51,466s-8.66,10.1-28.16,14.42c-24.27,5.37-24.31,20.36-16.51,34.21,2.71,4.81,9.25,4.06,16.63,1,20.39,12.68,74.84,26.78,79.25,16.24C370,519.28,362,511.94,353.71,502.07Z" style="fill:#eab22c"/><path d="M218.32,616.3a35.79,35.79,0,0,0,2.41,5.67c7.46,14.08,21.79,18.19,21.79,18.19v50.2A153.86,153.86,0,0,0,259,694c50.87,8.46,111.22-3.6,111.22-3.6-1.21-25.63,4.5-41.74,4.5-41.74h30.79s-5.41-80-25.38-109.7c-12.44-18.5-27.85-25.84-27.85-25.84-23.2-11.13-70.52-13-70.52-13s-15.19.51-36.15,28.75C226.56,554.52,213,600.08,218.32,616.3Z" style="fill:#44234c"/><path d="M337.25,488.4a46.64,46.64,0,0,0-3.9,13.07s5.76,4,18.9,11.61c0,0-1.36.65-3.73,1.53-6.22,2.29-19.43,6.16-33.29,3.83-16.14-2.7-33.48-18.31-33.48-18.31s14.68-5.51,25.06-6l7.51-17a55.7,55.7,0,0,1-.81-11.17c15.56-5.29,23.76-19.51,23.76-19.51,7.76,18,24.56,22.94,30.7,24.19a28.14,28.14,0,0,1-5,7.12c-7.34,7.48-20.72,11.76-21.88,11.76a11.42,11.42,0,0,1-2.95-.77l-.81-.31-.09,0Z" style="fill:#d37156"/><path d="M352.25,513.08s-1.36.65-3.73,1.53a139.63,139.63,0,0,0-25.43-14.48l4.77-15.71,9.39,4a46.64,46.64,0,0,0-3.9,13.07S339.11,505.43,352.25,513.08Z" style="fill:#b35d31"/><polygon points="332.29 881.23 328.42 895.38 303.54 888.99 306.6 874.92 332.29 881.23" style="fill:#d37156"/><path d="M239.11,726.2c1,8.57,3.76,17,9.82,23.11,15.78,16,53,15.85,74.46,14.27,9.6-.7,16-1.71,16-1.71s45.88,58,68.81,114.4c0,0,11.58.57,29-12.59,0,0-50.43-136-66.63-154.71-13.34-15.34-24.46-17.34-42.81-18.61s-66.89,2.5-85.3,0C242.52,690.36,237.06,708.6,239.11,726.2Z" style="fill:#5b8b76"/><path d="M304.35,875.61s10.14,7,30,7.6c0,0,14.62-50.43,20.71-85.92.72-4.13,1.31-8.07,1.75-11.69,0,0-12.59-18-17.42-23.73,0,0-15-19-27.21-25.37,0,0-.48,13.91-1.32,33.5C309.54,802,307.19,849.15,304.35,875.61Z" style="fill:#5b8b76"/><path d="M374.5,640s-1.77-31-8.1-48c0,0,5.6,28.46-6.55,53.8Z" style="fill:#0c111e"/><path d="M397,645.11s-4-5-1-9,5.06-2.31,8.43-4.42,9.49-6.54,14.34-4.22,12.85,15.39,10.32,20a19.37,19.37,0,0,1-4.84,5.62H413.63Z" style="fill:#d37156"/><rect x="283.54" y="647.34" width="131.74" height="5.82" style="fill:#fec900"/><path d="M415.28,647.34S398,640,380.37,640a153.31,153.31,0,0,0-27.88,2.58,19.07,19.07,0,0,1-6.35.15c-6.23-.91-20.11-2.73-30.71-2.73-14.1,0-31.89,7.32-31.89,7.32Z" style="fill:#fafafa"/><path d="M239.11,726.2c1,8.57,3.76,17,9.82,23.11,15.78,16,53,15.85,74.46,14.27-1.61-7.8-5.35-16.77-11.17-27.08C312.22,736.5,267.59,739.62,239.11,726.2Z" style="fill:#4e6e73"/><path d="M293.05,627.31a30.05,30.05,0,0,0,14.5,5.28c8,.46,12.31.69,16.59,1.38s13.8,8.66,12.41,10.1-13.33-1-15.93-1.05-4,3-7,2.75L291,643.83S288.84,630.72,293.05,627.31Z" style="fill:#d37156"/><path d="M220.73,622c7.46,14.08,21.79,18.19,21.79,18.19s20.15,8.46,48,5.17c0,0,3.6-10.69,2.26-20.79,0,0-35-11.39-37.12-17.41-2.68-7.47,3.78-21.71,4.11-22.44-.57.66-9.54,13.15-8.08,25.5.77,6.58,12.07,11.77,20.77,15a3.09,3.09,0,0,1-.61,6C258.69,633.1,237.1,633.79,220.73,622Z" style="fill:#0c111e"/><path d="M302.53,885.15l-8.2,18s18.13,22.12,27.39,26.75,24.3,4.63,27.78,1.74,1.35-16.92-5.79-22.74a69.26,69.26,0,0,0-13.39-8.66l2-7.32S311.69,891.32,302.53,885.15Z" style="fill:#1c0f25"/><path d="M310.9,770c23.5,4.79,38.33,20.06,44.2,27.29.72-4.13,1.31-8.07,1.75-11.69,0,0-12.59-18-17.42-23.73,0,0-15-19-27.21-25.37C312.22,736.5,311.74,750.41,310.9,770Z" style="fill:#4e6e73"/><rect x="648.57" y="681.9" width="22.08" height="287.69" style="fill:#454569"/><rect x="171.71" y="681.9" width="22.08" height="287.69" style="fill:#454569"/><path d="M140,653.15H702.35a4.43,4.43,0,0,1,4.67,4.13v20.49a4.43,4.43,0,0,1-4.67,4.13H140a4.43,4.43,0,0,1-4.67-4.13V657.28A4.43,4.43,0,0,1,140,653.15Z" style="fill:#385e65"/><circle cx="275.6" cy="145.42" r="9" style="fill:#ffe8bd"/><circle cx="310.88" cy="145.42" r="9" style="fill:#ffe8bd"/><circle cx="346.16" cy="145.42" r="9" style="fill:#ffe8bd"/><circle cx="381.44" cy="145.42" r="9" style="fill:#ffe8bd"/><circle cx="416.72" cy="145.42" r="9" style="fill:#ffe8bd"/><circle cx="275.53" cy="182.86" r="9" style="fill:#ffe8bd"/><circle cx="310.81" cy="182.86" r="9" style="fill:#ffe8bd"/><circle cx="346.09" cy="182.86" r="9" style="fill:#ffe8bd"/><circle cx="381.37" cy="182.86" r="9" style="fill:#ffe8bd"/><circle cx="416.65" cy="182.86" r="9" style="fill:#ffe8bd"/><circle cx="275.46" cy="220.3" r="9" style="fill:#ffe8bd"/><circle cx="310.74" cy="220.3" r="9" style="fill:#ffe8bd"/><circle cx="346.02" cy="220.3" r="9" style="fill:#ffe8bd"/><circle cx="381.3" cy="220.3" r="9" style="fill:#ffe8bd"/><circle cx="416.58" cy="220.3" r="9" style="fill:#ffe8bd"/><circle cx="275.39" cy="257.74" r="9" style="fill:#ffe8bd"/><circle cx="310.67" cy="257.74" r="9" style="fill:#ffe8bd"/><circle cx="345.95" cy="257.74" r="9" style="fill:#ffe8bd"/><circle cx="381.23" cy="257.74" r="9" style="fill:#ffe8bd"/><circle cx="416.51" cy="257.74" r="9" style="fill:#ffe8bd"/><circle cx="275.32" cy="295.18" r="9" style="fill:#ffe8bd"/><circle cx="310.6" cy="295.18" r="9" style="fill:#ffe8bd"/><circle cx="345.88" cy="295.18" r="9" style="fill:#ffe8bd"/><circle cx="381.16" cy="295.18" r="9" style="fill:#ffe8bd"/><circle cx="416.44" cy="295.18" r="9" style="fill:#ffe8bd"/></svg>