<svg xmlns="http://www.w3.org/2000/svg" viewBox="0 0 617.69 677.23"><title>picture_app</title><circle cx="332.78" cy="9" r="9" style="fill:#fff2db"/><circle cx="368.06" cy="9" r="9" style="fill:#fff2db"/><circle cx="403.34" cy="9" r="9" style="fill:#fff2db"/><circle cx="438.62" cy="9" r="9" style="fill:#fff2db"/><circle cx="473.9" cy="9" r="9" style="fill:#fff2db"/><circle cx="332.71" cy="46.44" r="9" style="fill:#fff2db"/><circle cx="367.99" cy="46.44" r="9" style="fill:#fff2db"/><circle cx="403.27" cy="46.44" r="9" style="fill:#fff2db"/><circle cx="438.55" cy="46.44" r="9" style="fill:#fff2db"/><circle cx="473.83" cy="46.44" r="9" style="fill:#fff2db"/><circle cx="332.64" cy="83.88" r="9" style="fill:#fff2db"/><circle cx="367.92" cy="83.88" r="9" style="fill:#fff2db"/><circle cx="403.2" cy="83.88" r="9" style="fill:#fff2db"/><circle cx="438.48" cy="83.88" r="9" style="fill:#fff2db"/><circle cx="473.76" cy="83.88" r="9" style="fill:#fff2db"/><circle cx="332.57" cy="121.32" r="9" style="fill:#fff2db"/><circle cx="367.85" cy="121.32" r="9" style="fill:#fff2db"/><circle cx="403.13" cy="121.32" r="9" style="fill:#fff2db"/><circle cx="438.41" cy="121.32" r="9" style="fill:#fff2db"/><circle cx="473.69" cy="121.32" r="9" style="fill:#fff2db"/><circle cx="332.5" cy="158.76" r="9" style="fill:#fff2db"/><circle cx="367.78" cy="158.76" r="9" style="fill:#fff2db"/><circle cx="403.06" cy="158.76" r="9" style="fill:#fff2db"/><circle cx="438.34" cy="158.76" r="9" style="fill:#fff2db"/><circle cx="473.62" cy="158.76" r="9" style="fill:#fff2db"/><polygon points="38 677.23 617.69 115.39 617.69 677.23 38 677.23" style="fill:#fff3dc"/><path d="M265.36,148.46c-.93,5.84-12.2,18.29-14.4,19.28s-9.89.86-9.89.86l-1.66,18.15-6.7.4-15.58.92,3.34-23.27c-10.94-42.35,4.94-55.62,24.22-53.05C263.32,114.23,266.3,142.61,265.36,148.46Z" style="fill:#d37156"/><path d="M220.47,164.8l5.78-1.59s-4.24-15.34,3.4-20.1,12.47,4.12,12.47,4.12,1.57-11.47,10-13.34,36.47-10.24,27.58-26.71-21.64,0-21.19,4.77c0,0-17.22-10.93-32.68,1C209.75,125.35,214.33,151.09,220.47,164.8Z" style="fill:#3c284a"/><polygon points="241.07 168.6 239.41 186.75 232.71 187.15 234.87 167.76 241.07 168.6" style="fill:#b35d31"/><path d="M236.76,242.36s-12.25,17-15.18,24.94c-.71,1.95-2,7.77-3.49,15.45-4.56,23.34-11.31,63.66-11.31,63.66s1.45,1.94,2.1,2.93.13,8.43-1.64,10.62-10.68-.68-12.7-2.07-5.23-4.1-4.47-7.48a22.26,22.26,0,0,1,2.33-6c-3.13-33.48,1.68-66.11,2.8-73.34.65-4.23,1.32-8.33,2-12.24,3.05-17.74,6.08-31.28,6.08-31.28Z" style="fill:#d37156"/><path d="M236.76,242.36s-12.25,17-15.18,24.94c-.71,1.95-2,7.77-3.49,15.45l-20.9-23.93c3.05-17.74,6.08-31.28,6.08-31.28Z" style="fill:#b35d31"/><path d="M247,192c-1-4.73-6.93-14.06-18.11-13.66-11.69.42-23.4,16.18-34.58,72,0,0,20.12,7.18,35.36,8C229.66,258.43,251.07,211.28,247,192Z" style="fill:#ccc462"/><rect x="256.79" y="628.61" width="25.57" height="24.18" transform="translate(495.98 1297.89) rotate(-176.19)" style="fill:#d37156"/><rect x="169.88" y="619.28" width="25.57" height="24.18" transform="translate(122.36 1285.86) rotate(-158.6)" style="fill:#d37156"/><path d="M247.93,508.5c-.51,2.27-1.71,6-3.39,10.77-11.35,32-45.06,110.65-45.06,110.65-14.23-2.14-28.78-9.46-28.78-9.46,10.3-21,33.33-102.69,36-112.67,1.92-7.28,2.13-24.56.87-48.93-.47-9.08-1.14-19.18-2-30.09a553.73,553.73,0,0,1-.61-80.95l22.83.36,22,120.12S253.88,482.05,247.93,508.5Z" style="fill:#5b8b76"/><path d="M247.93,508.5c-.51,2.27-1.71,6-3.39,10.77l-37-60.41c-.47-9.08-1.14-19.18-2-30.09a553.73,553.73,0,0,1-.61-80.95l22.83.36,22,120.12S253.88,482.05,247.93,508.5Z" style="fill:#4e6e73"/><path d="M279.29,347.83s14.58,79.94,18.4,138.07c3.2,48.7-11.48,145.78-11.48,145.78s-13.14,4.9-32.06,0c0,0,8.16-104.33.43-131.41-10.79-37.86-35.71-91.71-39.15-152.44Z" style="fill:#5b8b76"/><path d="M284.47,353.79s-40.31,8.75-83.77-1.76c0,0,2.38-81.29,3.77-128.95s14.11-47.83,25.5-45.73c17.58,3.24,30.22,14,41,40.83,6.75,16.82,10.62,50.71,12.39,83.16.71,12.91,1.07,25.56,1.17,36.85C284.58,343.79,284.55,349,284.47,353.79Z" style="fill:#dbd04b"/><path d="M284.53,338.19c-22.77-21.53-48.6-47.05-54.47-59-14.63-29.81-16.7-62.76-16.7-62.76s17.75-1.74,32.47,31.9c8.11,18.54,24.47,38.69,37.53,53C284.07,314.25,284.43,326.9,284.53,338.19Z" style="fill:#c6bc60"/><path d="M252.3,644.18s19.9,2.22,33.13,0c0,0,1.22,6.87,4.93,7.44,5.29.83,18.64.51,25.06,5.25,10.73,7.91,8.07,20.36,8.07,20.36H250.42A202.37,202.37,0,0,1,252.3,644.18Z" style="fill:#1c0f25"/><path d="M343.62,312.42,319.42,342l-6.14,7.51-12.7,15.56a3,3,0,0,1-4.17.42L261.64,337.1a2.93,2.93,0,0,1-.42-4.14L274,317.36l8.64-10.58,21.68-26.51a2.94,2.94,0,0,1,4.14-.42l34.78,28.42A3,3,0,0,1,343.62,312.42Z" style="fill:#401d3b"/><path d="M166.55,629.92s15.43,8,29.08,9.35c0,0-.85,7.29,3.35,9.82,6.31,3.82,17.52,3,23.94,7.78,10.73,7.91,8.07,20.36,8.07,20.36H196a6.86,6.86,0,0,1-2.72-.56l-36.89-16S160.07,644.18,166.55,629.92Z" style="fill:#1c0f25"/><path d="M321.35,347.59c-2.33.8-6.22-.44-8.47-3.09a17.07,17.07,0,0,1-3-6.94c-25.76-15.93-55.87-44.51-65-54-1-1-1.77-1.85-2.23-2.4-4.77-5.53-17-29.79-17-29.79l29.6-10.73s3.45,11.21,7.13,19.85A50.21,50.21,0,0,0,266,267.8c4.58,7.11,53.47,61.61,53.47,61.61a29.46,29.46,0,0,1,3.55-.19c1.18.06,5.76,4.31,6.43,7S323.66,346.81,321.35,347.59Z" style="fill:#d37156"/><path d="M262.33,260.48l-17.47,23.07c-1-1-1.77-1.85-2.23-2.4-4.77-5.53-17-29.79-17-29.79l29.6-10.73S258.65,251.84,262.33,260.48Z" style="fill:#b35d31"/><path d="M240.85,188.91c-3.53-3.29-13.75-7.53-22.66-.79-9.33,7.06-13.85,36,13,78.83,0,0,20.6-5.67,33.56-13.73C264.79,253.22,255.24,202.32,240.85,188.91Z" style="fill:#e5dd4f"/><rect x="20.19" y="612.52" width="56.81" height="64.71" rx="5.51" style="fill:#eab22c"/><path d="M59,612.52H33.61s-19.56-14.68-22.16-37C9.19,556.15,35.36,556,11.69,527c-23.43-28.74-10.38-85.88,27.9-90.2,35.17-4,33.4,37.87,18.44,65.78s-1.4,42.19,13,66C83.45,589.29,59,612.52,59,612.52Z" style="fill:#679d7c"/><path d="M51.59,612.52H48.52c1.52-8.93,2.91-26-4.46-41.87-8.25-17.73-12.91-32.48-14.64-46.42a94.6,94.6,0,0,1,6.46-48.46,1.49,1.49,0,1,1,2.77,1.12c-14.32,35.36-3.93,66.6,8.12,92.5C54.42,585.83,53.18,603.11,51.59,612.52Z" style="fill:#fff;opacity:0.30000000000000004"/><path d="M66,585.63c12.33,19.11-4,26.89-4,26.89H42.11c6-12.32-4.48-15.09-8-29.21-5.55-22.46,17.94-25.58,10.49-43.86S56,490.39,76.76,494.26C93.2,497.34,71,516.86,88,537.12S54.74,568.14,66,585.63Z" style="fill:#cec462"/><path d="M57.14,597.31c3.38,5.69,2,11.15-.35,15.21H54a14.81,14.81,0,0,0,2.72-8A11.4,11.4,0,0,0,55,598.59c-6.92-11.66-12.47-24.37,2-40.35,8.69-9.61,7.82-15,6.81-21.27-.55-3.45-1.13-7-.26-11.47a1.25,1.25,0,0,1,2.48.25,1,1,0,0,1,0,.24,28.29,28.29,0,0,0,.27,10.59c1.06,6.6,2.06,12.84-7.42,23.33C45.51,574.65,50.43,586,57.14,597.31Z" style="fill:#fff;opacity:0.30000000000000004"/><rect x="20.19" y="637.13" width="56.81" height="15.49" style="fill:#fec900"/></svg>