<svg xmlns="http://www.w3.org/2000/svg" viewBox="0 0 143.1 40"><title>sevi-logo</title><rect width="13" height="40" style="fill:#723182"/><rect x="22" y="7" width="9" height="26" style="fill:#723182"/><path d="M63.54,33.52l1.13-4.05a22.22,22.22,0,0,0,3.64,1.4,13.91,13.91,0,0,0,4,.63,8.52,8.52,0,0,0,4.55-1,3.28,3.28,0,0,0,.72-5,8.64,8.64,0,0,0-2.19-1.73c-.88-.51-2.17-1.19-3.85-2a25.14,25.14,0,0,1-6.36-4.3A7.21,7.21,0,0,1,63,12.1,7.09,7.09,0,0,1,64.24,8,8.36,8.36,0,0,1,67.79,5.1a13.18,13.18,0,0,1,5.47-1,15.83,15.83,0,0,1,4.3.61,22.42,22.42,0,0,1,4.07,1.55l-1.71,4A24.17,24.17,0,0,0,76.75,9a11.28,11.28,0,0,0-3.31-.45,7.27,7.27,0,0,0-3.82.9,2.91,2.91,0,0,0-1.49,2.66,3.37,3.37,0,0,0,.79,2.22A7.12,7.12,0,0,0,71,16q1.28.75,4,2.14a45.16,45.16,0,0,1,4.62,2.68,10.34,10.34,0,0,1,2.83,2.88,7,7,0,0,1,1.11,3.94A7.42,7.42,0,0,1,82.26,32a8.4,8.4,0,0,1-3.85,2.94A15.73,15.73,0,0,1,72.32,36a18.22,18.22,0,0,1-4.78-.79A13.13,13.13,0,0,1,63.54,33.52Z" style="fill:#723182"/><path d="M108.27,25.78H93.15q.67,5.85,7,5.85a9.72,9.72,0,0,0,3.13-.47,26.74,26.74,0,0,0,3.31-1.46l1.53,3.69A13.87,13.87,0,0,1,100,35.91q-5.94,0-9.06-3.09a11.22,11.22,0,0,1-3.13-8.39,13.38,13.38,0,0,1,1.28-6,9.54,9.54,0,0,1,3.69-4A10.89,10.89,0,0,1,98.5,13q4.81,0,7.29,3.19a12.93,12.93,0,0,1,2.48,8.15Zm-15-3.37h10.17a7,7,0,0,0-1.67-3.83,4.46,4.46,0,0,0-3.37-1.3,4.69,4.69,0,0,0-3.49,1.35A6.42,6.42,0,0,0,93.24,22.41Z" style="fill:#723182"/><path d="M119.83,35.37l-8.1-21,4.91-1.62,5.53,15.35,5.31-14.54h5.27l-8.42,21.83Z" style="fill:#723182"/><path d="M140.08,10A2.78,2.78,0,0,1,138,9.16,3,3,0,0,1,137.16,7,2.88,2.88,0,0,1,138,4.93a2.77,2.77,0,0,1,2.07-.88,2.89,2.89,0,0,1,2.14.88A2.83,2.83,0,0,1,143.1,7a3,3,0,0,1-3,3Zm-2.47,25.34V13.54h5.08V35.37Z" style="fill:#723182"/></svg>