<svg xmlns="http://www.w3.org/2000/svg" viewBox="0 0 941.22 777.17"><title>hero-picture</title><rect x="555.62" width="385.6" height="597.29" style="fill:#fec900"/><rect x="572.24" y="16.49" width="352.37" height="91.57" style="fill:#ffe499"/><rect x="572.24" y="124.55" width="352.37" height="91.57" style="fill:#ffe499"/><rect x="572.24" y="232.61" width="352.37" height="91.57" style="fill:#ffe499"/><rect x="572.24" y="340.68" width="352.37" height="91.57" style="fill:#ffe499"/><rect x="572.24" y="448.74" width="352.37" height="91.57" style="fill:#ffe499"/><g style="opacity:0.99"><rect x="753.42" y="138.43" width="9.61" height="77.69" rx="2.47" style="fill:#fff"/><rect x="763.03" y="138.43" width="16.74" height="77.69" rx="2.47" style="fill:#cec462"/><rect x="840.84" y="138.43" width="11.8" height="77.69" rx="2.47" style="fill:#cec462"/><rect x="796.52" y="138.43" width="10.83" height="77.69" rx="2.47" style="fill:#e5dd4f"/><path d="M1084.22,339.57v2.83H1073.4v-2.83Zm-10.82,5.68v2.83h10.82v-2.83Zm0,46.05v2.85h10.82V391.3Zm0,5.68v2.85h10.82V397Z" transform="translate(-276.87 -192.42)" style="fill:#7cb342;opacity:0.30000000000000004"/><rect x="779.77" y="138.43" width="16.75" height="77.69" rx="2.47" style="fill:#fec900"/><ellipse cx="788.15" cy="177.28" rx="4.34" ry="9.46" style="fill:#fdd835"/><rect x="824.1" y="138.43" width="16.74" height="77.69" rx="2.47" style="fill:#fff"/><rect x="807.35" y="138.43" width="16.75" height="77.69" rx="2.47" style="fill:#fec900"/><path d="M1095.52,350.81v37.77a2.93,2.93,0,0,1-5.85,0V350.81a2.93,2.93,0,0,1,5.85,0Zm-2.92-8.31a2.93,2.93,0,1,0-2.93-2.93A2.93,2.93,0,0,0,1092.6,342.5Zm0,54.4a2.93,2.93,0,1,0,2.92,2.93A2.93,2.93,0,0,0,1092.6,396.9Z" transform="translate(-276.87 -192.42)" style="fill:#fdd835"/></g><g style="opacity:0.99"><rect x="636.12" y="246.49" width="9.61" height="77.69" rx="2.47" style="fill:#fff"/><rect x="645.73" y="246.49" width="16.74" height="77.69" rx="2.47" style="fill:#cec462"/><path d="M939.34,447.63v5.68H922.6v-5.68ZM922.6,502.21v5.68h16.74v-5.68Z" transform="translate(-276.87 -192.42)" style="fill:#d8cb6c"/><rect x="723.54" y="246.49" width="11.8" height="77.69" rx="2.47" style="fill:#cec462"/><path d="M1012.22,447.63v5.68h-11.81v-5.68Zm-11.81,54.58v5.68h11.81v-5.68Z" transform="translate(-276.87 -192.42)" style="fill:#d8cb6c"/><rect x="679.22" y="246.49" width="10.83" height="77.69" rx="2.47" style="fill:#cec462"/><path d="M966.92,447.63v2.84H956.09v-2.84Zm-10.83,5.68v2.84h10.83v-2.84Zm0,46.05v2.85h10.83v-2.85Zm0,5.68v2.85h10.83V505Z" transform="translate(-276.87 -192.42)" style="fill:#d8cb6c"/><rect x="662.47" y="246.49" width="16.75" height="77.69" rx="2.47" style="fill:#e5dd4f"/><ellipse cx="670.84" cy="285.34" rx="4.34" ry="9.46" style="fill:#7cb342;opacity:0.30000000000000004"/><rect x="706.8" y="246.49" width="16.74" height="77.69" rx="2.47" style="fill:#fff"/><rect x="690.05" y="246.49" width="16.75" height="77.69" rx="2.47" style="fill:#fec900"/><path d="M978.22,458.87v37.77a2.93,2.93,0,0,1-5.85,0V458.87a2.93,2.93,0,0,1,5.85,0Zm-2.93-8.31a2.93,2.93,0,1,0-2.92-2.93A2.93,2.93,0,0,0,975.29,450.56Zm0,54.4a2.93,2.93,0,1,0,2.93,2.93A2.93,2.93,0,0,0,975.29,505Z" transform="translate(-276.87 -192.42)" style="fill:#fdd835"/></g><rect x="846.26" y="462.61" width="16.75" height="77.69" rx="2.47" style="fill:#fff"/><rect x="863.01" y="462.61" width="16.75" height="77.69" rx="2.47" style="fill:#cec462"/><ellipse cx="871.39" cy="501.46" rx="4.34" ry="9.46" style="fill:#7cb342;opacity:0.5"/><rect x="879.76" y="462.61" width="16.74" height="77.69" rx="2.47" style="fill:#fec900"/><path d="M1156.64,718.33h16.74V724h-16.74Zm13.86-24.45a5.5,5.5,0,1,0-5.49,5.49A5.49,5.49,0,0,0,1170.5,693.88Zm-13.86-30.13v5.69h16.74v-5.69Z" transform="translate(-276.87 -192.42)" style="fill:#fdd835"/><rect x="896.51" y="462.61" width="16.75" height="77.69" rx="2.47" style="fill:#e5dd4f"/><path d="M1184.68,675v37.76a2.93,2.93,0,1,1-5.85,0V675a2.93,2.93,0,1,1,5.85,0Zm-2.93-8.32a2.93,2.93,0,1,0-2.92-2.93A2.93,2.93,0,0,0,1181.75,666.68Zm0,54.41a2.93,2.93,0,1,0,2.93,2.92A2.92,2.92,0,0,0,1181.75,721.09Z" transform="translate(-276.87 -192.42)" style="fill:#7cb342;opacity:0.30000000000000004"/><rect x="581.38" y="138.43" width="16.75" height="77.69" rx="2.47" style="fill:#cec462"/><rect x="598.13" y="138.43" width="16.74" height="77.69" rx="2.47" style="fill:#fec900"/><path d="M891.74,339.57v5.68H875v-5.68ZM875,394.15v5.68h16.74v-5.68Z" transform="translate(-276.87 -192.42)" style="fill:#fec900"/><rect x="614.87" y="138.43" width="16.75" height="77.69" rx="2.47" style="fill:#fff"/><rect x="631.63" y="138.43" width="16.75" height="77.69" rx="2.47" style="fill:#e5dd4f"/><ellipse cx="640" cy="177.28" rx="4.34" ry="9.46" style="fill:#7cb342;opacity:0.30000000000000004"/><rect x="648.38" y="138.43" width="16.74" height="77.69" rx="2.47" style="fill:#cec462"/><rect x="665.12" y="138.43" width="16.75" height="77.69" rx="2.47" style="fill:#fec900"/><path d="M953.29,350.81v37.77a2.93,2.93,0,0,1-5.85,0V350.81a2.93,2.93,0,0,1,5.85,0Zm-2.92-8.31a2.93,2.93,0,1,0-2.93-2.93A2.93,2.93,0,0,0,950.37,342.5Zm0,54.4a2.93,2.93,0,1,0,2.92,2.93A2.93,2.93,0,0,0,950.37,396.9Z" transform="translate(-276.87 -192.42)" style="fill:#fdd835"/><rect x="928.66" y="222.84" width="9.61" height="77.69" rx="2.47" transform="translate(-305.42 -50.61) rotate(-8.56)" style="fill:#fec900"/><rect x="590.27" y="30.37" width="16.74" height="77.69" rx="2.47" style="fill:#fec900"/><path d="M883.88,231.51v5.68H867.14v-5.68Zm-16.74,54.58v5.68h16.74v-5.68Z" transform="translate(-276.87 -192.42)" style="fill:#fec900"/><rect x="634.59" y="30.37" width="11.8" height="77.69" rx="2.47" style="fill:#cec462"/><rect x="607.02" y="30.37" width="10.83" height="77.69" rx="2.47" style="fill:#fff"/><rect x="977.21" y="226.75" width="16.75" height="77.69" rx="2.47" transform="translate(-234.01 464.58) rotate(-37.63)" style="fill:#fec900"/><ellipse cx="985.58" cy="265.59" rx="4.34" ry="9.46" transform="translate(-234.01 464.58) rotate(-37.63)" style="fill:#fdd835"/><rect x="617.85" y="30.37" width="16.74" height="77.69" rx="2.47" style="fill:#e5dd4f"/><path d="M894.72,286.09h16.74v5.68H894.72Zm13.87-24.46a5.5,5.5,0,1,0-5.5,5.5A5.49,5.49,0,0,0,908.59,261.63Zm-13.87-30.12v5.68h16.74v-5.68Z" transform="translate(-276.87 -192.42)" style="fill:#7cb342;opacity:0.30000000000000004"/><rect x="949.19" y="223.86" width="16.75" height="77.69" rx="2.47" transform="translate(-295.35 252.73) rotate(-25.93)" style="fill:#fff"/><rect x="1088.59" y="438.97" width="9.61" height="77.69" rx="2.47" transform="translate(-335.8 -24.41) rotate(-8.56)" style="fill:#e5dd4f"/><rect x="750.2" y="246.49" width="16.74" height="77.69" rx="2.47" style="fill:#fec900"/><path d="M1043.81,447.63v5.68h-16.74v-5.68Zm-16.74,54.58v5.68h16.74v-5.68Z" transform="translate(-276.87 -192.42)" style="fill:#fdd835"/><rect x="794.52" y="246.49" width="11.8" height="77.69" rx="2.47" style="fill:#fec900"/><path d="M1083.2,447.63v5.68h-11.81v-5.68Zm-11.81,54.58v5.68h11.81v-5.68Z" transform="translate(-276.87 -192.42)" style="fill:#fdd835"/><rect x="766.95" y="246.49" width="10.83" height="77.69" rx="2.47" style="fill:#fff"/><rect x="1137.14" y="442.87" width="16.75" height="77.69" rx="2.47" transform="translate(-332.69 607.18) rotate(-37.63)" style="fill:#e5dd4f"/><ellipse cx="1145.51" cy="481.72" rx="4.34" ry="9.46" transform="translate(-332.69 607.18) rotate(-37.63)" style="fill:#7cb342;opacity:0.30000000000000004"/><rect x="777.78" y="246.49" width="16.74" height="77.69" rx="2.47" style="fill:#cec462"/><path d="M1054.65,502.21h16.74v5.68h-16.74Zm13.87-24.45a5.5,5.5,0,1,0-5.5,5.49A5.5,5.5,0,0,0,1068.52,477.76Zm-13.87-30.13v5.68h16.74v-5.68Z" transform="translate(-276.87 -192.42)" style="fill:#d8cb6c"/><rect x="1109.12" y="439.99" width="16.75" height="77.69" rx="2.47" transform="translate(-373.76 344.42) rotate(-25.93)" style="fill:#fff"/><rect x="997.95" y="252.83" width="77.69" height="16.75" rx="2.47" transform="translate(388.34 1071.34) rotate(-83.8)" style="fill:#cec462"/><rect x="772.2" y="30.37" width="16.74" height="77.69" rx="2.47" style="fill:#e5dd4f"/><path d="M1065.81,231.51v5.68h-16.74v-5.68Zm-16.74,54.58v5.68h16.74v-5.68Z" transform="translate(-276.87 -192.42)" style="fill:#7cb342;opacity:0.30000000000000004"/><rect x="788.94" y="30.37" width="16.75" height="77.69" rx="2.47" style="fill:#cec462"/><path d="M1082.57,231.51v2.83h-16.76v-2.83Zm-16.76,5.68V240h16.76v-2.83Zm0,46.05v2.85h16.76v-2.85Zm0,5.68v2.85h16.76v-2.85Z" transform="translate(-276.87 -192.42)" style="fill:#d8cb6c"/><rect x="1144.11" y="222.8" width="16.75" height="77.69" rx="2.47" transform="translate(-300.13 188.88) rotate(-18.6)" style="fill:#e5dd4f"/><path d="M1150.81,230.43l.91,2.68-15.88,5.35-.91-2.69Zm2.44,59.75.91,2.7,15.87-5.34-.9-2.7Z" transform="translate(-276.87 -192.42)" style="fill:#7cb342;opacity:0.30000000000000004"/><rect x="1161.84" y="222.8" width="16.75" height="77.69" rx="2.47" transform="translate(-299.2 194.53) rotate(-18.6)" style="fill:#fff"/><rect x="805.69" y="30.37" width="16.75" height="77.69" rx="2.47" style="fill:#fff"/><ellipse cx="814.07" cy="69.21" rx="4.34" ry="9.46" style="fill:#ffe499;opacity:0.25"/><rect x="822.44" y="30.37" width="16.74" height="77.69" rx="2.47" style="fill:#fec900"/><path d="M1099.32,286.09h16.74v5.68h-16.74Zm13.86-24.46a5.5,5.5,0,1,0-5.49,5.5A5.49,5.49,0,0,0,1113.18,261.63Zm-13.86-30.12v5.68h16.74v-5.68Z" transform="translate(-276.87 -192.42)" style="fill:#fdd835"/><rect x="839.19" y="30.37" width="16.75" height="77.69" rx="2.47" style="fill:#cec462"/><rect x="837.36" y="577.02" width="77.69" height="16.75" rx="2.47" transform="translate(-77.21 1200.88) rotate(-83.8)" style="fill:#cec462"/><rect x="611.6" y="354.55" width="16.74" height="77.69" rx="2.47" style="fill:#e5dd4f"/><path d="M905.22,555.69v5.68H888.48v-5.68Zm-16.74,54.58V616h16.74v-5.68Z" transform="translate(-276.87 -192.42)" style="fill:#7cb342;opacity:0.30000000000000004"/><rect x="628.35" y="354.55" width="16.75" height="77.69" rx="2.47" style="fill:#fff"/><rect x="983.51" y="546.99" width="16.75" height="77.69" rx="2.47" transform="translate(-411.93 154.59) rotate(-18.6)" style="fill:#fec900"/><path d="M990.22,554.61l.9,2.69-15.87,5.34-.91-2.69Zm-14.07,10.73.91,2.69,15.88-5.35L992,560ZM990.84,609l.91,2.69,15.88-5.34-.91-2.7Zm1.82,5.38.9,2.7,15.88-5.35-.91-2.69Z" transform="translate(-276.87 -192.42)" style="fill:#fdd835"/><rect x="1001.25" y="546.99" width="16.75" height="77.69" rx="2.47" transform="translate(-411 160.24) rotate(-18.6)" style="fill:#f9a825"/><path d="M1008,554.61l.91,2.69L993,562.64l-.91-2.69Zm-14.06,10.73.9,2.69,15.88-5.35-.91-2.69ZM1008.58,609l.9,2.69,15.88-5.34-.91-2.7Zm1.81,5.38.91,2.7,15.87-5.35-.9-2.69Z" transform="translate(-276.87 -192.42)" style="fill:#fdd835"/><rect x="645.1" y="354.55" width="16.75" height="77.69" rx="2.47" style="fill:#fec900"/><ellipse cx="653.48" cy="393.4" rx="4.34" ry="9.46" style="fill:#fdd835"/><rect x="661.85" y="354.55" width="16.74" height="77.69" rx="2.47" style="fill:#e5dd4f"/><path d="M938.72,610.27h16.75V616H938.72Zm13.87-24.45a5.5,5.5,0,1,0-5.49,5.49A5.49,5.49,0,0,0,952.59,585.82Zm-13.87-30.13v5.68h16.75v-5.68Z" transform="translate(-276.87 -192.42)" style="fill:#7cb342;opacity:0.30000000000000004"/><rect x="678.6" y="354.55" width="16.75" height="77.69" rx="2.47" style="fill:#cec462"/><path d="M966.77,566.94V604.7a2.93,2.93,0,0,1-5.85,0V566.94a2.93,2.93,0,1,1,5.85,0Zm-2.93-8.32a2.93,2.93,0,1,0-2.92-2.93A2.93,2.93,0,0,0,963.84,558.62Zm0,54.41a2.93,2.93,0,1,0,2.93,2.92A2.92,2.92,0,0,0,963.84,613Z" transform="translate(-276.87 -192.42)" style="fill:#d8cb6c"/><rect x="817.88" y="415.49" width="77.69" height="16.75" rx="2.47" style="fill:#fff"/><rect x="817.88" y="398.74" width="77.69" height="16.75" rx="2.47" style="fill:#fec900"/><ellipse cx="856.73" cy="407.12" rx="9.46" ry="4.34" style="fill:#fdd835"/><rect x="817.88" y="382" width="77.69" height="16.74" rx="2.47" style="fill:#e5dd4f"/><path d="M1158.05,591.16V574.42h5.68v16.74ZM1133.6,577.3a5.49,5.49,0,1,0,5.49,5.49A5.49,5.49,0,0,0,1133.6,577.3Zm-30.13,13.86h5.68V574.42h-5.68Z" transform="translate(-276.87 -192.42)" style="fill:#7cb342;opacity:0.30000000000000004"/><rect x="817.88" y="365.25" width="77.69" height="16.75" rx="2.47" style="fill:#cec462"/><path d="M1114.72,563.12h37.76a2.93,2.93,0,1,1,0,5.85h-37.76a2.93,2.93,0,1,1,0-5.85ZM1106.4,566a2.93,2.93,0,1,0-2.93,2.93A2.93,2.93,0,0,0,1106.4,566Zm54.41,0a2.93,2.93,0,1,0,2.92-2.92A2.93,2.93,0,0,0,1160.81,566Z" transform="translate(-276.87 -192.42)" style="fill:#d8cb6c"/><rect x="21.7" y="707.61" width="61.07" height="69.56" rx="5.92" style="fill:#eab22c"/><path d="M340.33,900H313s-21-15.78-23.83-39.74c-2.42-20.86,25.71-21,.25-52.2-25.17-30.89-11.15-92.31,30-97,37.8-4.26,35.9,40.72,19.82,70.71s-1.51,45.36,13.93,71C366.58,875.06,340.33,900,340.33,900Z" transform="translate(-276.87 -192.42)" style="fill:#679d7c"/><path d="M332.33,900H329c1.64-9.6,3.13-28-4.79-45-8.87-19-13.87-34.91-15.74-49.9A101.78,101.78,0,0,1,315.44,753a1.61,1.61,0,0,1,3,1.2c-15.39,38-4.23,71.6,8.72,99.44C335.37,871.34,334,889.92,332.33,900Z" transform="translate(-276.87 -192.42)" style="fill:#fff;opacity:0.30000000000000004"/><path d="M347.86,871.13c13.26,20.53-4.29,28.9-4.29,28.9H322.14c6.43-13.24-4.82-16.22-8.57-31.4-6-24.15,19.29-27.5,11.28-47.14s12.24-52.74,34.53-48.58c17.67,3.31-6.17,24.29,12.05,46.08S335.71,852.32,347.86,871.13Z" transform="translate(-276.87 -192.42)" style="fill:#cec462"/><path d="M338.29,883.68c3.64,6.11,2.1,12-.38,16.35h-3a15.89,15.89,0,0,0,2.92-8.65,12.22,12.22,0,0,0-1.8-6.33c-7.43-12.53-13.4-26.19,2.14-43.37,9.34-10.33,8.4-16.13,7.32-22.86-.59-3.71-1.21-7.54-.27-12.33a1.34,1.34,0,0,1,2.66.27,2.13,2.13,0,0,1,0,.25c-.85,4.35-.27,7.92.29,11.39,1.14,7.09,2.22,13.8-8,25.08C325.79,859.32,331.08,871.53,338.29,883.68Z" transform="translate(-276.87 -192.42)" style="fill:#fff;opacity:0.30000000000000004"/><rect x="21.7" y="734.07" width="61.07" height="16.65" style="fill:#fec900"/><path d="M1037.59,782.36l5.63,28.24,31.72,159h13.78l-31.7-159-6.15-30.88ZM958.07,969.59h13.8l31.7-159,5.63-28.24-13.26-2.64-6.16,30.88Z" transform="translate(-276.87 -192.42)" style="fill:#eab22c"/><path d="M1057,810.6h-13.8l-5.63-28.24,13.28-2.64Zm-67.24,0h13.79l5.63-28.24-13.26-2.64Z" transform="translate(-276.87 -192.42)" style="fill:#c2703a;opacity:0.5"/><polygon points="647.7 723.57 646.86 744.61 614.19 742.6 617.04 719.55 647.7 723.57" style="fill:#b35d31"/><path d="M1071.28,735.33c-.09,8.63-1.88,17.44-7.49,24-12.88,15-59.47,17.43-85.58,17.58a25.61,25.61,0,0,0-24.07,17.37c-10.21,30-16.11,80.42-27.14,125,0,0-15.71,5.23-36.42-3.81,0,0,11.6-119.94,32.08-163.62,15.58-33.21,38.68-40.35,56.82-43.42s70.74-3.68,88.81-8C1068.29,700.44,1071.44,720.31,1071.28,735.33Z" transform="translate(-276.87 -192.42)" style="fill:#4e6e73"/><path d="M926.35,931.91s-22.69,2.53-37.77,0c0,0-1.39,7.82-5.63,8.48-6,.94-21.24.59-28.57,6-12.23,9-9.2,23.21-9.2,23.21h83.31A229.23,229.23,0,0,0,926.35,931.91Z" transform="translate(-276.87 -192.42)" style="fill:#1c0f25"/><path d="M861.39,632.69c1.76,2.19,6.26,3.37,10,2.19s7.13-4.84,7.13-4.84c33,2.14,57.55,1,75.14-3.8,11.5-3.16,45.37-22.92,45.37-22.92l-22-28.4s-16.39,16.58-30,23.14-72.82,18.28-72.82,18.28A35.49,35.49,0,0,0,871,614c-1.18-.66-8.18.63-10.49,2.84S859.64,630.53,861.39,632.69Z" transform="translate(-276.87 -192.42)" style="fill:#b35d31"/><path d="M1025.29,523.49c5.26-1.63,17.85-.94,23.67,10.4,6.1,11.87-3.56,43.8-52.39,74.52,0,0-18.35-16-27.68-30.71C968.89,577.7,1003.88,530.14,1025.29,523.49Z" transform="translate(-276.87 -192.42)" style="fill:#ccc462"/><path d="M975.06,498.93c2.83,6.12,19.07,16.25,21.8,16.65s11.11-2.14,11.11-2.14l7.48,19.38,7.48-1.65,17.37-3.85-10.92-24.48c-1.22-49.85-22.77-59.44-43.11-50.62C966.62,460.75,972.19,492.81,975.06,498.93Z" transform="translate(-276.87 -192.42)" style="fill:#d37156"/><path d="M1029.37,502.84l-6.83.06s-.13-18.14-10-21-12.39,8.41-12.39,8.41-5.29-12.08-15.13-11.51-43.19.15-38.58-20.68,23.72-6.78,24.73-1.39c0,0,15.47-17.35,36.15-9.1C1028.83,456.24,1031.84,485.89,1029.37,502.84Z" transform="translate(-276.87 -192.42)" style="fill:#3c284a"/><polygon points="731.1 321.02 738.58 340.4 746.06 338.75 737.64 318.17 731.1 321.02" style="fill:#b35d31"/><path d="M987.69,724.24s46.8,4.66,94.66-12.89c0,0-3.27-75.28-14.35-128.51-13.65-65.66-28.89-69.42-41.53-65.55-19.48,6-25.59,18.24-34.33,50-2.22,8.13-3.3,18.84-3.64,31.15-.37,13.23.12,28.35.93,44.22.27,5.46.59,11,.93,16.63C991.22,674,994.18,700.05,987.69,724.24Z" transform="translate(-276.87 -192.42)" style="fill:#e5dd4f"/><path d="M824.82,646.23l77.25,7a3.37,3.37,0,0,0,3.66-3.06l3.56-32.72a3.36,3.36,0,0,0-3-3.65L829,606.82a3.36,3.36,0,0,0-3.65,3l-3.55,32.73A3.34,3.34,0,0,0,824.82,646.23Z" transform="translate(-276.87 -192.42)" style="fill:#401d3b"/><path d="M989.43,642.67c54.67-40.73,56.94-92.58,56.94-92.58L988.5,598.45C988.13,611.68,988.62,626.8,989.43,642.67Z" transform="translate(-276.87 -192.42)" style="fill:#ccc462"/><path d="M861.47,647.86c1.86,2.12,6.41,3.1,10.14,1.75s6.91-5.18,6.91-5.18c33,.66,57.53-1.57,74.88-7.21,3.92-1.28,10.45-4.67,17.3-8.54,12.93-7.32,27-16.41,27-16.41L974.46,584.9s-3.89,4.32-9.44,9.53-12.8,11.36-19.45,15C932.43,616.49,873.66,631,873.66,631a32.72,32.72,0,0,0-3.42-2.2c-1.2-.61-8.13,1-10.33,3.31S859.62,645.78,861.47,647.86Z" transform="translate(-276.87 -192.42)" style="fill:#d37156"/><path d="M965,594.43l5.68,34.25c12.93-7.32,27-16.41,27-16.41L974.46,584.9S970.57,589.22,965,594.43Z" transform="translate(-276.87 -192.42)" style="fill:#b35d31"/><path d="M1020.24,531.33c5.19-1.87,17.79-1.75,24.13,9.32,6.62,11.57-1.58,43.92-49,76.82,0,0-19-15.16-29-29.42C966.37,588.05,999.16,539,1020.24,531.33Z" transform="translate(-276.87 -192.42)" style="fill:#e5dd4f"/><polygon points="595.76 712.83 585.9 733.13 613.95 742.71 620.68 725.44 595.76 712.83" style="fill:#d37156"/><path d="M896.27,933.94s-21.94-6.31-34.92-14.4c0,0-4.27,6.71-8.44,5.7-5.93-1.43-19.86-7.56-28.69-5.36-14.75,3.68-17.35,18-17.35,18l77,31.75A230.4,230.4,0,0,0,896.27,933.94Z" transform="translate(-276.87 -192.42)" style="fill:#1c0f25"/><path d="M867,907.78c1.1.83,2.2,1.61,3.26,2.35,12.11,8.26,22.7,10.83,27.18,11.59,1.46.25,2.27.31,2.27.31,17-39,43.9-98.2,57-127a25.58,25.58,0,0,1,25.66-14.92c26,2.42,72.6,4.59,86.9-9.05,4.75-4.53,7.42-10.6,8.83-17a57.22,57.22,0,0,0,1-6.07c1.64-14.94.47-35,.47-35-18.4,2.51-70.82-2.08-89.18-.83-2.85.21-5.83.49-8.91.95-16.7,2.47-36.05,10.07-51.9,36.67C904.89,791.14,867,907.78,867,907.78Z" transform="translate(-276.87 -192.42)" style="fill:#5b8b76"/><path d="M981.48,713A146.55,146.55,0,0,1,1077,756.08a23.33,23.33,0,0,0,1.67-5.12s.24-1.47.41-3c1.64-14.94.47-35,.47-35-18.4,2.51-70.82-2.08-89.18-.83C987.54,712.28,984.56,712.56,981.48,713Z" transform="translate(-276.87 -192.42)" style="fill:#4e6e73"/><path d="M964.45,790.29h87.37a50.77,50.77,0,0,0,50.64-47l9.75-132.17h0a23.68,23.68,0,0,0-25.36,21.87l-8,108.56a27.11,27.11,0,0,1-27,25.11H988.14a23.69,23.69,0,0,0-23.69,23.68Z" transform="translate(-276.87 -192.42)" style="fill:#2c2920"/><polygon points="432.81 668.99 439.16 682.21 416.18 693.69 409.27 681.06 432.81 668.99" style="fill:#d37156"/><path d="M689.78,883.87l7.72,26.49s26.09-2.67,36.12-5.25,21.39-12.43,22.11-16.89-10.06-13.66-19.27-13.38a68.85,68.85,0,0,0-15.78,2.24l-3.32-6.82S700.74,882.52,689.78,883.87Z" transform="translate(-276.87 -192.42)" style="fill:#1c0f25"/><rect x="304.38" y="596.99" width="18.35" height="168.64" style="fill:#eab22c"/><path d="M527.7,957.71l58.06-14.91a18.89,18.89,0,0,1,9.33,0l58.06,14.91a6.89,6.89,0,0,1,5.17,6.67v5.21H522.53v-5.21A6.89,6.89,0,0,1,527.7,957.71Z" transform="translate(-276.87 -192.42)" style="fill:#c2703a"/><rect x="244.13" y="565.18" width="138.85" height="31.81" rx="5.35" style="fill:#2c2920"/><polygon points="367.87 495.76 370.45 522.36 334.23 500.96 367.87 495.76" style="fill:#4e6e73"/><path d="M639.44,541.45s11.85,11.39,24.7-2.68c9.53-10.44-15.6-34.17-11.47-49.54,5.07-18.87,15.05-63.06-22.94-72.71-39.15-9.95-36,31.51-64.7,42.52s-62.67,25.16-35.45,64.9C529.58,523.94,592,508.73,639.44,541.45Z" transform="translate(-276.87 -192.42)" style="fill:#fec900"/><path d="M630.58,502.07a15.75,15.75,0,0,1-1.46-19.25s-4.28-7.35-14.58-11.71c-4.12-1.75-9.29-.94-14.74,1L590.38,466s-8.66,10.1-28.16,14.42c-24.26,5.37-24.31,20.36-16.51,34.21,2.71,4.81,9.25,4.06,16.63,1,20.4,12.68,74.84,26.78,79.25,16.24C646.86,519.28,638.84,511.94,630.58,502.07Z" transform="translate(-276.87 -192.42)" style="fill:#eab22c"/><path d="M495.19,616.3A35.79,35.79,0,0,0,497.6,622c7.47,14.08,21.8,18.19,21.8,18.19v50.2a152.8,152.8,0,0,0,16.46,3.6c50.86,8.46,111.22-3.6,111.22-3.6-1.21-25.63,4.49-41.74,4.49-41.74h30.79s-5.41-80-25.37-109.7c-12.45-18.5-27.86-25.84-27.86-25.84-23.19-11.13-70.52-13-70.52-13s-15.19.51-36.15,28.75C503.43,554.52,489.87,600.08,495.19,616.3Z" transform="translate(-276.87 -192.42)" style="fill:#44234c"/><path d="M614.13,488.4a46.86,46.86,0,0,0-3.91,13.07s5.76,4,18.9,11.61c0,0-1.36.65-3.73,1.53-6.22,2.29-19.43,6.16-33.28,3.83-16.15-2.7-33.49-18.31-33.49-18.31s14.68-5.51,25.06-6l7.51-17a55.7,55.7,0,0,1-.81-11.17c15.56-5.29,23.76-19.51,23.76-19.51,7.77,18,24.56,22.94,30.7,24.19a27.88,27.88,0,0,1-5,7.12c-7.34,7.48-20.72,11.76-21.87,11.76a11.38,11.38,0,0,1-3-.77l-.8-.31-.1,0Z" transform="translate(-276.87 -192.42)" style="fill:#d37156"/><path d="M629.12,513.08s-1.36.65-3.73,1.53A139.63,139.63,0,0,0,600,500.13l4.77-15.71,9.4,4a46.86,46.86,0,0,0-3.91,13.07S616,505.43,629.12,513.08Z" transform="translate(-276.87 -192.42)" style="fill:#b35d31"/><polygon points="332.29 688.82 328.42 702.96 303.54 696.58 306.6 682.51 332.29 688.82" style="fill:#d37156"/><path d="M516,726.2c1,8.57,3.77,17,9.82,23.11,15.78,16,53,15.85,74.47,14.27,9.59-.7,16-1.71,16-1.71s45.88,58,68.82,114.4c0,0,11.58.57,29-12.59,0,0-50.43-136-66.63-154.71-13.34-15.34-24.46-17.34-42.81-18.61s-66.89,2.5-85.29,0C519.4,690.36,513.93,708.6,516,726.2Z" transform="translate(-276.87 -192.42)" style="fill:#5b8b76"/><path d="M581.22,875.61s10.15,7,30,7.6c0,0,14.62-50.43,20.71-85.92.72-4.13,1.31-8.07,1.75-11.69,0,0-12.59-18-17.42-23.73,0,0-15-19-27.21-25.37,0,0-.48,13.91-1.32,33.5C586.41,802,584.06,849.15,581.22,875.61Z" transform="translate(-276.87 -192.42)" style="fill:#5b8b76"/><path d="M651.37,640s-1.76-31-8.09-48c0,0,5.6,28.46-6.56,53.8Z" transform="translate(-276.87 -192.42)" style="fill:#0c111e"/><path d="M673.9,645.11s-4-5-1-9,5.06-2.31,8.44-4.42,9.48-6.54,14.33-4.22,12.86,15.39,10.33,20a19.48,19.48,0,0,1-4.85,5.62H690.5Z" transform="translate(-276.87 -192.42)" style="fill:#d37156"/><rect x="283.54" y="454.92" width="131.74" height="5.82" style="fill:#fec900"/><path d="M692.15,647.34S674.87,640,657.24,640a153.31,153.31,0,0,0-27.88,2.58,19.07,19.07,0,0,1-6.35.15c-6.22-.91-20.11-2.73-30.71-2.73-14.1,0-31.89,7.32-31.89,7.32Z" transform="translate(-276.87 -192.42)" style="fill:#fafafa"/><path d="M516,726.2c1,8.57,3.77,17,9.82,23.11,15.78,16,53,15.85,74.47,14.27-1.62-7.8-5.36-16.77-11.18-27.08C589.09,736.5,544.46,739.62,516,726.2Z" transform="translate(-276.87 -192.42)" style="fill:#4e6e73"/><path d="M569.93,627.31a30,30,0,0,0,14.49,5.28c8,.46,12.31.69,16.59,1.38s13.8,8.66,12.41,10.1-13.32-1-15.92-1.05-4,3-7,2.75l-22.64-1.94S565.71,630.72,569.93,627.31Z" transform="translate(-276.87 -192.42)" style="fill:#d37156"/><path d="M497.6,622c7.47,14.08,21.8,18.19,21.8,18.19s20.15,8.46,48,5.17c0,0,3.6-10.69,2.26-20.79,0,0-35-11.39-37.12-17.41-2.68-7.47,3.78-21.71,4.11-22.44-.57.66-9.53,13.15-8.08,25.5.77,6.58,12.07,11.77,20.78,15a3.09,3.09,0,0,1-.61,6C535.56,633.1,514,633.79,497.6,622Z" transform="translate(-276.87 -192.42)" style="fill:#0c111e"/><path d="M579.4,885.15l-8.2,18s18.13,22.12,27.39,26.75,24.31,4.63,27.78,1.74,1.35-16.92-5.79-22.74a69.26,69.26,0,0,0-13.39-8.66l2-7.32S588.57,891.32,579.4,885.15Z" transform="translate(-276.87 -192.42)" style="fill:#1c0f25"/><path d="M587.77,770c23.51,4.79,38.33,20.06,44.2,27.29.72-4.13,1.31-8.07,1.75-11.69,0,0-12.59-18-17.42-23.73,0,0-15-19-27.21-25.37C589.09,736.5,588.61,750.41,587.77,770Z" transform="translate(-276.87 -192.42)" style="fill:#4e6e73"/><rect x="648.57" y="489.48" width="22.08" height="287.69" style="fill:#454569"/><rect x="171.71" y="489.48" width="22.08" height="287.69" style="fill:#454569"/><path d="M416.88,653.15H979.23a4.42,4.42,0,0,1,4.66,4.13v20.49a4.42,4.42,0,0,1-4.66,4.13H416.88a4.43,4.43,0,0,1-4.67-4.13V657.28A4.43,4.43,0,0,1,416.88,653.15Z" transform="translate(-276.87 -192.42)" style="fill:#385e65"/></svg>