<svg xmlns="http://www.w3.org/2000/svg" viewBox="0 0 411.79 359.71"><title>bookcase-2</title><rect y="82.18" width="314.14" height="277.53" style="fill:#efc72f"/><rect x="1.58" width="410.21" height="106.6" style="fill:#f6e29b"/><rect x="1.58" y="125.8" width="410.21" height="106.6" style="fill:#f6e29b"/><rect x="1.58" y="251.6" width="410.21" height="106.6" style="fill:#f6e29b"/><rect x="189.47" y="221.22" width="90.45" height="11.19" rx="2.88" style="fill:#fff"/><rect x="189.47" y="201.72" width="90.45" height="19.49" rx="2.88" style="fill:#e1db5b"/><path d="M199.62,201.72h6.62v19.5h-6.62Zm63.54,19.5h6.61v-19.5h-6.61Z" style="fill:#8db14c;opacity:0.30000000000000004"/><rect x="189.47" y="169.62" width="90.45" height="12.6" rx="2.88" style="fill:#c9c268"/><rect x="189.47" y="182.22" width="90.45" height="19.5" rx="2.88" style="fill:#efc72f"/><ellipse cx="234.69" cy="191.97" rx="11.01" ry="5.05" style="fill:#f3d748"/><rect x="286.29" y="179.67" width="90.45" height="13.74" rx="2.88" style="fill:#e1db5b"/><path d="M296.45,179.67h6.61v13.74h-6.61ZM360,193.41h6.61V179.67H360Z" style="fill:#8db14c;opacity:0.30000000000000004"/><rect x="286.29" y="193.41" width="90.45" height="19.49" rx="2.88" style="fill:#fff"/><rect x="286.29" y="212.9" width="90.45" height="19.5" rx="2.88" style="fill:#efc72f"/><path d="M309.54,219.25h44a3.41,3.41,0,0,1,0,6.81h-44a3.41,3.41,0,1,1,0-6.81Zm-9.69,3.4a3.41,3.41,0,1,0-3.4,3.41A3.4,3.4,0,0,0,299.85,222.65Zm63.34,0a3.41,3.41,0,1,0,3.41-3.4A3.41,3.41,0,0,0,363.19,222.65Z" style="fill:#f3d748"/><rect x="12.22" y="141.95" width="19.5" height="90.45" rx="2.88" style="fill:#c9c268"/><rect x="31.72" y="141.95" width="19.49" height="90.45" rx="2.88" style="fill:#efc72f"/><path d="M51.21,152.11v6.61H31.72v-6.61ZM31.72,215.65v6.61H51.21v-6.61Z" style="fill:#f3d748"/><rect x="51.21" y="141.95" width="19.5" height="90.45" rx="2.88" style="fill:#fff"/><rect x="70.71" y="141.95" width="19.5" height="90.45" rx="2.88" style="fill:#e1db5b"/><ellipse cx="80.46" cy="187.18" rx="5.05" ry="11.01" style="fill:#8db14c;opacity:0.30000000000000004"/><rect x="90.21" y="141.95" width="19.49" height="90.45" rx="2.88" style="fill:#c9c268"/><rect x="109.71" y="141.95" width="19.5" height="90.45" rx="2.88" style="fill:#efc72f"/><path d="M122.86,165.2v44a3.41,3.41,0,1,1-6.81,0v-44a3.41,3.41,0,1,1,6.81,0Zm-3.4-9.69a3.41,3.41,0,1,0-3.41-3.4A3.4,3.4,0,0,0,119.46,155.51Zm0,63.34a3.41,3.41,0,1,0,3.4,3.41A3.41,3.41,0,0,0,119.46,218.85Z" style="fill:#f3d748"/><rect x="94.18" y="16.22" width="11.19" height="90.45" rx="2.88" transform="translate(-8.03 15.53) rotate(-8.56)" style="fill:#efc72f"/><rect x="22.57" y="16.15" width="19.49" height="90.45" rx="2.88" style="fill:#efc72f"/><path d="M42.06,26.31v6.61H22.57V26.31ZM22.57,89.85v6.61H42.06V89.85Z" style="fill:#f3d748"/><rect x="74.17" y="16.15" width="13.74" height="90.45" rx="2.88" style="fill:#c9c268"/><rect x="42.07" y="16.15" width="12.6" height="90.45" rx="2.88" style="fill:#fff"/><rect x="150.7" y="20.77" width="19.5" height="90.45" rx="2.88" transform="translate(-6.91 111.69) rotate(-37.63)" style="fill:#efc72f"/><ellipse cx="160.45" cy="65.99" rx="5.05" ry="11.01" transform="translate(-6.91 111.69) rotate(-37.63)" style="fill:#f3d748"/><rect x="54.67" y="16.15" width="19.49" height="90.45" rx="2.88" style="fill:#e1db5b"/><path d="M54.67,89.85h19.5v6.61H54.67ZM70.82,61.38a6.4,6.4,0,1,0-6.4,6.39A6.41,6.41,0,0,0,70.82,61.38ZM54.67,26.31v6.61h19.5V26.31Z" style="fill:#8db14c;opacity:0.30000000000000004"/><rect x="118.09" y="17.41" width="19.5" height="90.45" rx="2.88" transform="translate(-14.52 62.2) rotate(-25.93)" style="fill:#fff"/><rect x="174.85" y="51.13" width="90.45" height="19.5" rx="2.88" transform="translate(135.8 273.1) rotate(-83.8)" style="fill:#e1db5b"/><rect x="234.36" y="16.15" width="19.49" height="90.45" rx="2.88" style="fill:#c9c268"/><rect x="253.85" y="16.15" width="19.5" height="90.45" rx="2.88" style="fill:#fff"/><rect x="345" y="16.17" width="19.5" height="90.45" rx="2.88" transform="translate(-1.05 116.37) rotate(-18.6)" style="fill:#c9c268"/><rect x="365.64" y="16.17" width="19.5" height="90.45" rx="2.88" transform="translate(0.03 122.95) rotate(-18.6)" style="fill:#efc72f"/><path d="M373.45,25.05l1.05,3.13L356,34.4,355,31.27ZM357.07,37.54l1.06,3.13,18.48-6.23-1.05-3.12Zm17.1,50.81,1.06,3.14,18.49-6.22-1.06-3.14Zm2.11,6.27,1.06,3.14,18.49-6.23-1.06-3.13Z" style="fill:#f3d748"/><rect x="273.36" y="16.15" width="19.5" height="90.45" rx="2.88" style="fill:#efc72f"/><ellipse cx="283.11" cy="61.38" rx="5.05" ry="11.01" style="fill:#f3d748"/><rect x="292.86" y="16.15" width="19.49" height="90.45" rx="2.88" style="fill:#c9c268"/><rect x="312.35" y="16.15" width="19.5" height="90.45" rx="2.88" style="fill:#e1db5b"/><path d="M325.5,39.4v44a3.41,3.41,0,1,1-6.81,0v-44a3.41,3.41,0,1,1,6.81,0Zm-3.4-9.69a3.41,3.41,0,1,0-3.41-3.4A3.4,3.4,0,0,0,322.1,29.71Zm0,63.34a3.41,3.41,0,1,0,3.4,3.41A3.41,3.41,0,0,0,322.1,93.05Z" style="fill:#8db14c;opacity:0.30000000000000004"/><g style="opacity:0.99"><rect x="61.12" y="268.46" width="11.13" height="89.98" rx="2.86" style="fill:#fff"/><rect x="72.25" y="268.46" width="19.39" height="89.98" rx="2.86" style="fill:#c9c268"/><path d="M91.65,278.56v6.58H72.25v-6.58Zm-19.4,63.21v6.58h19.4v-6.58Z" style="fill:#d2c971"/><rect x="162.37" y="268.46" width="13.67" height="89.98" rx="2.86" style="fill:#c9c268"/><path d="M176.05,278.56v6.58H162.37v-6.58Zm-13.68,63.21v6.58h13.68v-6.58Z" style="fill:#d2c971"/><rect x="111.05" y="268.46" width="12.54" height="89.98" rx="2.86" style="fill:#c9c268"/><path d="M123.58,278.56v3.28H111.05v-3.28Zm-12.53,6.58v3.28h12.53v-3.28Zm0,53.34v3.29h12.53v-3.29Zm0,6.57v3.3h12.53v-3.3Z" style="fill:#d2c971"/><rect x="91.65" y="268.46" width="19.4" height="89.98" rx="2.86" style="fill:#e1db5b"/><ellipse cx="101.35" cy="313.45" rx="5.03" ry="10.95" style="fill:#8db14c;opacity:0.30000000000000004"/><rect x="142.98" y="268.46" width="19.39" height="89.98" rx="2.86" style="fill:#fff"/><rect x="123.58" y="268.46" width="19.4" height="89.98" rx="2.86" style="fill:#efc72f"/><path d="M136.67,291.58v43.74a3.39,3.39,0,0,1-6.77,0V291.58a3.39,3.39,0,1,1,6.77,0ZM133.28,282a3.39,3.39,0,1,0-3.38-3.39A3.39,3.39,0,0,0,133.28,282Zm0,63a3.39,3.39,0,1,0,3.39,3.39A3.38,3.38,0,0,0,133.28,345Z" style="fill:#f3d748"/></g><rect x="264.49" y="268.53" width="11.13" height="89.98" rx="2.86" transform="translate(-43.64 43.67) rotate(-8.56)" style="fill:#e1db5b"/><rect x="193.25" y="268.46" width="19.39" height="89.98" rx="2.86" style="fill:#efc72f"/><path d="M212.64,278.56v6.58H193.25v-6.58Zm-19.39,63.21v6.58h19.39v-6.58Z" style="fill:#f3d748"/><rect x="244.58" y="268.46" width="13.67" height="89.98" rx="2.86" style="fill:#efc72f"/><path d="M258.25,278.56v6.58H244.58v-6.58Zm-13.67,63.21v6.58h13.67v-6.58Z" style="fill:#f3d748"/><rect x="212.65" y="268.46" width="12.54" height="89.98" rx="2.86" style="fill:#fff"/><rect x="320.72" y="273.05" width="19.4" height="89.98" rx="2.86" transform="translate(-125.44 267.9) rotate(-37.63)" style="fill:#e1db5b"/><ellipse cx="330.42" cy="318.04" rx="5.03" ry="10.95" transform="translate(-125.44 267.9) rotate(-37.63)" style="fill:#8db14c;opacity:0.30000000000000004"/><rect x="225.19" y="268.46" width="19.39" height="89.98" rx="2.86" style="fill:#c9c268"/><path d="M225.19,341.77h19.39v6.58H225.19Zm16.06-28.32a6.37,6.37,0,1,0-6.37,6.36A6.37,6.37,0,0,0,241.25,313.45Zm-16.06-34.89v6.58h19.39v-6.58Z" style="fill:#d2c971"/><rect x="288.27" y="269.71" width="19.4" height="89.98" rx="2.86" transform="translate(-107.61 161.97) rotate(-25.93)" style="fill:#fff"/></svg>