<svg xmlns="http://www.w3.org/2000/svg" viewBox="0 0 721.24 547.34"><title>picture_libraries</title><circle cx="205.83" cy="112.76" r="9" style="fill:#fff2db"/><circle cx="241.11" cy="112.76" r="9" style="fill:#fff2db"/><circle cx="276.39" cy="112.76" r="9" style="fill:#fff2db"/><circle cx="311.67" cy="112.76" r="9" style="fill:#fff2db"/><circle cx="346.95" cy="112.76" r="9" style="fill:#fff2db"/><circle cx="205.76" cy="150.2" r="9" style="fill:#fff2db"/><circle cx="241.04" cy="150.2" r="9" style="fill:#fff2db"/><circle cx="276.32" cy="150.2" r="9" style="fill:#fff2db"/><circle cx="311.6" cy="150.2" r="9" style="fill:#fff2db"/><circle cx="346.88" cy="150.2" r="9" style="fill:#fff2db"/><circle cx="205.69" cy="187.64" r="9" style="fill:#fff2db"/><circle cx="240.97" cy="187.64" r="9" style="fill:#fff2db"/><circle cx="276.25" cy="187.64" r="9" style="fill:#fff2db"/><circle cx="311.53" cy="187.64" r="9" style="fill:#fff2db"/><circle cx="346.81" cy="187.64" r="9" style="fill:#fff2db"/><circle cx="205.62" cy="225.08" r="9" style="fill:#fff2db"/><circle cx="240.9" cy="225.08" r="9" style="fill:#fff2db"/><circle cx="276.18" cy="225.08" r="9" style="fill:#fff2db"/><circle cx="311.46" cy="225.08" r="9" style="fill:#fff2db"/><circle cx="346.74" cy="225.08" r="9" style="fill:#fff2db"/><circle cx="205.55" cy="262.52" r="9" style="fill:#fff2db"/><circle cx="240.83" cy="262.52" r="9" style="fill:#fff2db"/><circle cx="276.11" cy="262.52" r="9" style="fill:#fff2db"/><circle cx="311.39" cy="262.52" r="9" style="fill:#fff2db"/><circle cx="346.67" cy="262.52" r="9" style="fill:#fff2db"/><polygon points="559.84 545.84 0 0 0 545.84 559.84 545.84" style="fill:#fff2db"/><rect y="269.81" width="314.14" height="277.53" style="fill:#fec900"/><rect x="1.58" y="187.64" width="410.21" height="106.6" style="fill:#ffe499"/><rect x="1.58" y="313.44" width="410.21" height="106.6" style="fill:#ffe499"/><rect x="1.58" y="439.24" width="410.21" height="106.6" style="fill:#ffe499"/><rect x="189.47" y="408.85" width="90.45" height="11.19" rx="2.88" style="fill:#fff"/><rect x="189.47" y="389.36" width="90.45" height="19.49" rx="2.88" style="fill:#e5dd4f"/><path d="M199.62,389.36h6.62v19.49h-6.62Zm63.54,19.49h6.61V389.36h-6.61Z" style="fill:#7cb342;opacity:0.30000000000000004"/><rect x="189.47" y="357.26" width="90.45" height="12.6" rx="2.88" style="fill:#cec462"/><rect x="189.47" y="369.86" width="90.45" height="19.5" rx="2.88" style="fill:#fec900"/><ellipse cx="234.69" cy="379.61" rx="11.01" ry="5.05" style="fill:#fdd835"/><rect x="286.29" y="367.3" width="90.45" height="13.74" rx="2.88" style="fill:#e5dd4f"/><path d="M296.45,367.3h6.61v13.75h-6.61ZM360,381.05h6.61V367.3H360Z" style="fill:#7cb342;opacity:0.30000000000000004"/><rect x="286.29" y="381.05" width="90.45" height="19.49" rx="2.88" style="fill:#fff"/><rect x="286.29" y="400.54" width="90.45" height="19.5" rx="2.88" style="fill:#fec900"/><path d="M309.54,406.88h44a3.41,3.41,0,0,1,0,6.82h-44a3.41,3.41,0,0,1,0-6.82Zm-9.69,3.41a3.41,3.41,0,1,0-3.4,3.41A3.41,3.41,0,0,0,299.85,410.29Zm63.34,0a3.41,3.41,0,1,0,3.41-3.41A3.41,3.41,0,0,0,363.19,410.29Z" style="fill:#fdd835"/><rect x="12.22" y="329.59" width="19.5" height="90.45" rx="2.88" style="fill:#cec462"/><rect x="31.72" y="329.59" width="19.49" height="90.45" rx="2.88" style="fill:#fec900"/><path d="M51.21,339.75v6.61H31.72v-6.61ZM31.72,403.28v6.62H51.21v-6.62Z" style="fill:#fdd835"/><rect x="51.21" y="329.59" width="19.5" height="90.45" rx="2.88" style="fill:#fff"/><rect x="70.71" y="329.59" width="19.5" height="90.45" rx="2.88" style="fill:#e5dd4f"/><ellipse cx="80.46" cy="374.81" rx="5.05" ry="11.01" style="fill:#7cb342;opacity:0.30000000000000004"/><rect x="90.21" y="329.59" width="19.49" height="90.45" rx="2.88" style="fill:#cec462"/><rect x="109.71" y="329.59" width="19.5" height="90.45" rx="2.88" style="fill:#fec900"/><path d="M122.86,352.83v44a3.41,3.41,0,0,1-6.81,0v-44a3.41,3.41,0,0,1,6.81,0Zm-3.4-9.68a3.41,3.41,0,1,0-3.41-3.4A3.4,3.4,0,0,0,119.46,343.15Zm0,63.34a3.41,3.41,0,1,0,3.4,3.41A3.41,3.41,0,0,0,119.46,406.49Z" style="fill:#fdd835"/><rect x="94.18" y="203.86" width="11.19" height="90.45" rx="2.88" transform="translate(-35.95 17.62) rotate(-8.56)" style="fill:#fec900"/><rect x="22.57" y="203.79" width="19.49" height="90.45" rx="2.88" style="fill:#fec900"/><path d="M42.06,214v6.61H22.57V214ZM22.57,277.48v6.62H42.06v-6.62Z" style="fill:#fdd835"/><rect x="74.17" y="203.79" width="13.74" height="90.45" rx="2.88" style="fill:#cec462"/><rect x="42.07" y="203.79" width="12.6" height="90.45" rx="2.88" style="fill:#fff"/><rect x="150.7" y="208.4" width="19.5" height="90.45" rx="2.88" transform="translate(-121.47 150.73) rotate(-37.63)" style="fill:#fec900"/><ellipse cx="160.45" cy="253.63" rx="5.05" ry="11.01" transform="translate(-121.47 150.73) rotate(-37.63)" style="fill:#fdd835"/><rect x="54.67" y="203.79" width="19.49" height="90.45" rx="2.88" style="fill:#e5dd4f"/><path d="M54.67,277.48h19.5v6.62H54.67ZM70.82,249a6.4,6.4,0,1,0-6.4,6.4A6.4,6.4,0,0,0,70.82,249ZM54.67,214v6.61h19.5V214Z" style="fill:#7cb342;opacity:0.30000000000000004"/><rect x="118.09" y="205.05" width="19.5" height="90.45" rx="2.88" transform="translate(-96.56 81.09) rotate(-25.93)" style="fill:#fff"/><rect x="174.85" y="238.77" width="90.45" height="19.5" rx="2.88" transform="translate(-50.74 440.49) rotate(-83.8)" style="fill:#e5dd4f"/><rect x="234.36" y="203.79" width="19.49" height="90.45" rx="2.88" style="fill:#cec462"/><rect x="253.85" y="203.79" width="19.5" height="90.45" rx="2.88" style="fill:#fff"/><rect x="345" y="203.81" width="19.5" height="90.45" rx="2.88" transform="translate(-60.91 126.17) rotate(-18.6)" style="fill:#cec462"/><rect x="365.64" y="203.81" width="19.5" height="90.45" rx="2.88" transform="translate(-59.83 132.75) rotate(-18.6)" style="fill:#fec900"/><path d="M373.45,212.68l1.05,3.13L356,222,355,218.91Zm-16.38,12.49,1.06,3.13,18.48-6.22L375.56,219ZM374.17,276l1.06,3.14,18.49-6.23-1.06-3.14Zm2.11,6.26,1.06,3.14,18.49-6.22L394.77,276Z" style="fill:#fdd835"/><rect x="273.36" y="203.79" width="19.5" height="90.45" rx="2.88" style="fill:#fec900"/><ellipse cx="283.11" cy="249.01" rx="5.05" ry="11.01" style="fill:#fdd835"/><rect x="292.86" y="203.79" width="19.49" height="90.45" rx="2.88" style="fill:#cec462"/><rect x="312.35" y="203.79" width="19.5" height="90.45" rx="2.88" style="fill:#e5dd4f"/><path d="M325.5,227v44a3.41,3.41,0,0,1-6.81,0V227a3.41,3.41,0,0,1,6.81,0Zm-3.4-9.68a3.41,3.41,0,1,0-3.41-3.41A3.4,3.4,0,0,0,322.1,217.35Zm0,63.34a3.41,3.41,0,1,0,3.4,3.41A3.41,3.41,0,0,0,322.1,280.69Z" style="fill:#7cb342;opacity:0.30000000000000004"/><rect x="575.75" y="506.18" width="20.6" height="17.86" transform="translate(-45.58 57.03) rotate(-5.36)" style="fill:#d37156"/><rect x="521.98" y="506.18" width="20.6" height="17.86" transform="translate(-45.82 52.01) rotate(-5.36)" style="fill:#d37156"/><path d="M545.8,518.55a150.88,150.88,0,0,1-27.35,0s-7.19,4.63-18.89,10.48c-9.85,4.92-6.66,16.81-6.66,16.81h54.46A166.87,166.87,0,0,0,545.8,518.55Z" style="fill:#44234c"/><path d="M507.87,167.39s-8.58,8.25-17.88-1.93c-6.91-7.57,11.29-24.76,8.3-35.89-3.67-13.67-10.9-45.67,16.62-52.66,28.35-7.21,26,22.82,46.86,30.8s45.39,18.22,25.68,47C587.45,154.71,542.21,143.69,507.87,167.39Z" style="fill:#fec900"/><path d="M514.29,138.87a11.41,11.41,0,0,0,1.06-13.94,23,23,0,0,1,10.56-8.48c3-1.27,6.72-.68,10.68.75l6.81-4.47s6.28,7.32,20.4,10.44c17.58,3.9,17.61,14.75,12,24.78-2,3.49-6.7,3-12,.76-14.77,9.18-54.2,19.39-57.39,11.76C502.5,151.33,508.31,146,514.29,138.87Z" style="fill:#eab22c"/><path d="M504.36,218.2l-19.28-11.63s-6.34,19.91-3.24,28.38c1.33,3.62,10.41,7.43,12,7.15a39.83,39.83,0,0,0,8.88-3.13l-12.85-9.37Z" style="fill:#d37156"/><path d="M506.43,381.09c2.66,44.86,13.29,126.58,13.29,126.58a43.8,43.8,0,0,0,23.59,0S541.11,413,540.43,397c-1.11-26.35,5.81-68.44,5.81-68.44s7.37,52.49,10.69,75.75,17,104.67,17,104.67a51.16,51.16,0,0,0,10.42,1.7c8.33.46,12.84-1.7,12.84-1.7s-5.32-76.53-7.09-108,1.44-129.91,1.44-129.91l-85.06,2.71S504.54,349.25,506.43,381.09Z" style="fill:#454569"/><path d="M599.41,518.55a151,151,0,0,1-27.36,0s-7.18,4.63-18.89,10.48c-9.84,4.92-6.66,16.81-6.66,16.81H601A166.21,166.21,0,0,0,599.41,518.55Z" style="fill:#44234c"/><path d="M546.24,328.6s7.37,52.49,10.69,75.75,17,104.67,17,104.67a51.16,51.16,0,0,0,10.42,1.7c-17.81-76.45-35-210-35-210Z" style="fill:#44234c"/><path d="M607.11,233.9c-3.88,10.86-12.3,14.62-12.3,14.62v26.73a109.91,109.91,0,0,1-11.92,2.6c-36.84,6.13-80.55-2.6-80.55-2.6.88-18.57,1.77-53,1.77-53l-21-14.62s4-14.4,9.35-30.27c6.63-19.55,22.9-30.53,22.9-30.53,16.8-8.07,51.07-9.38,51.07-9.38s11,.37,26.19,20.82C606.38,176.86,610.27,225.05,607.11,233.9Z" style="fill:#4e6e73"/><path d="M504.36,215.27s4.89-17.14,6.53-24.67L509.36,217Z" style="fill:#3b5b5e"/><path d="M526.21,129a34,34,0,0,1,2.83,9.47s-4.18,2.87-13.69,8.41c0,0,1,.46,2.7,1.1,4.5,1.66,14.07,4.47,24.11,2.78,11.69-1.95,24.25-13.26,24.25-13.26s-10.63-4-18.15-4.34l-5.44-12.3a40.21,40.21,0,0,0,.58-8.1c-11.27-3.83-17.21-14.13-17.21-14.13-5.62,13-17.78,16.62-22.23,17.52a19.9,19.9,0,0,0,3.59,5.16c5.31,5.42,15,8.52,15.84,8.52a8.19,8.19,0,0,0,2.14-.56l.58-.23.07,0A0,0,0,0,1,526.21,129Z" style="fill:#d37156"/><path d="M463.9,193.86s3.79-.83,8.72,4.07c3.6,3.58,11.88,17.86,15.83,24,0,0,47.07-32.17,51-34.09,5.53-2.72,13.18-1.66,13.18-1.66l-66.23,42.75Z" style="fill:#fafafa"/><path d="M566.8,232.9c-13.29,7.78-42.2,12-42.2,12,5.81,9,16.2,11.59,23.54,12.21l-23.7,16.17-40.6-43.89,69.44-45,26.81,38A65.23,65.23,0,0,1,566.8,232.9Z" style="fill:#e5dd4f"/><path d="M515.35,146.85s1,.46,2.7,1.1a101.25,101.25,0,0,1,18.42-10.48L533,126.09l-6.8,2.88a34,34,0,0,1,2.83,9.47S524.86,141.31,515.35,146.85Z" style="fill:#ce633b"/><path d="M524.72,245.55a15.55,15.55,0,0,1-6.44-.49c-1.17-.36-4.84-4-6.73-3.88s.23,5.54-.66,6.64-7.32,2-9,1.07l-4.66-5s-2.75,2.41-2.31,4.52,2.77,7.75,5.87,9.86,17.11,2.27,26.08-3.3A35.94,35.94,0,0,1,524.72,245.55Z" style="fill:#d37156"/><path d="M594.81,248.52v26.73a109.91,109.91,0,0,1-11.92,2.6l.73-23A97.56,97.56,0,0,0,594.81,248.52Z" style="fill:#3b5b5e"/><path d="M585.18,210.31s-3.5,11.85-12.46,17.78c-11.8,7.81-32.23,13.5-51,14.89,0,0,0,12.1,4.23,16.59,0,0,38,.58,57.67-4.74,0,0,8-4.26,11.19-6.31,0,0-39.53,14.73-67.45-2.1,0,0,30.66-4.11,47.19-16.28A26.86,26.86,0,0,0,585.18,210.31Z" style="fill:#3b5b5e"/><polygon points="483.84 229.36 460.47 194.81 463.51 193.03 487.43 227.03 483.84 229.36" style="fill:#e7ce42"/><rect x="652.06" y="483.06" width="55.12" height="62.78" rx="5.34" style="fill:#eab22c"/><path d="M689.74,483.06H665.09s-19-14.25-21.51-35.88c-2.19-18.82,23.2-18.92.23-47.1-22.72-27.89-10.07-83.33,27.08-87.52,34.11-3.85,32.39,36.75,17.89,63.82s-1.37,40.94,12.57,64.07C713.44,460.52,689.74,483.06,689.74,483.06Z" style="fill:#679d7c"/><path d="M682.53,483.06h-3c1.48-8.67,2.83-25.26-4.32-40.63-8-17.2-12.52-31.51-14.21-45a91.88,91.88,0,0,1,6.28-47,1.45,1.45,0,1,1,2.68,1.09c-13.89,34.31-3.82,64.62,7.88,89.75C685.27,457.16,684.06,473.93,682.53,483.06Z" style="fill:#fff;opacity:0.30000000000000004"/><path d="M696.54,457c12,18.53-3.87,26.09-3.87,26.09H673.33c5.8-12-4.35-14.65-7.73-28.35-5.39-21.79,17.4-24.82,10.17-42.55s11.05-47.6,31.18-43.84c15.94,3-5.57,21.93,10.87,41.59S685.58,440,696.54,457Z" style="fill:#cec462"/><path d="M687.91,468.3c3.28,5.52,1.9,10.82-.34,14.76h-2.75a14.44,14.44,0,0,0,2.64-7.82,11,11,0,0,0-1.63-5.7c-6.71-11.31-12.09-23.65,1.93-39.15,8.43-9.32,7.59-14.56,6.61-20.63a29.63,29.63,0,0,1-.25-11.13,1.21,1.21,0,0,1,2.4.24,2,2,0,0,1,0,.23,27.43,27.43,0,0,0,.26,10.27c1,6.41,2,12.46-7.21,22.65C676.63,446.31,681.4,457.33,687.91,468.3Z" style="fill:#fff;opacity:0.30000000000000004"/><rect x="652.06" y="506.93" width="55.12" height="15.03" style="fill:#fec900"/><g style="opacity:0.99"><rect x="61.12" y="456.1" width="11.13" height="89.98" rx="2.86" style="fill:#fff"/><rect x="72.25" y="456.1" width="19.39" height="89.98" rx="2.86" style="fill:#cec462"/><path d="M91.65,466.2v6.58H72.25V466.2Zm-19.4,63.21V536h19.4v-6.58Z" style="fill:#d8cb6c"/><rect x="162.37" y="456.1" width="13.67" height="89.98" rx="2.86" style="fill:#cec462"/><path d="M176.05,466.2v6.58H162.37V466.2Zm-13.68,63.21V536h13.68v-6.58Z" style="fill:#d8cb6c"/><rect x="111.05" y="456.1" width="12.54" height="89.98" rx="2.86" style="fill:#cec462"/><path d="M123.58,466.2v3.28H111.05V466.2Zm-12.53,6.58v3.28h12.53v-3.28Zm0,53.33v3.3h12.53v-3.3Zm0,6.58V536h12.53v-3.3Z" style="fill:#d8cb6c"/><rect x="91.65" y="456.1" width="19.4" height="89.98" rx="2.86" style="fill:#e5dd4f"/><ellipse cx="101.35" cy="501.09" rx="5.03" ry="10.95" style="fill:#7cb342;opacity:0.30000000000000004"/><rect x="142.98" y="456.1" width="19.39" height="89.98" rx="2.86" style="fill:#fff"/><rect x="123.58" y="456.1" width="19.4" height="89.98" rx="2.86" style="fill:#fec900"/><path d="M136.67,479.22V523a3.39,3.39,0,1,1-6.77,0V479.22a3.39,3.39,0,1,1,6.77,0Zm-3.39-9.63a3.39,3.39,0,1,0-3.38-3.39A3.39,3.39,0,0,0,133.28,469.59Zm0,63a3.39,3.39,0,1,0,3.39,3.39A3.38,3.38,0,0,0,133.28,532.6Z" style="fill:#fdd835"/></g><rect x="264.49" y="456.16" width="11.13" height="89.98" rx="2.86" transform="translate(-71.56 45.76) rotate(-8.56)" style="fill:#e5dd4f"/><rect x="193.25" y="456.1" width="19.39" height="89.98" rx="2.86" style="fill:#fec900"/><path d="M212.64,466.2v6.58H193.25V466.2Zm-19.39,63.21V536h19.39v-6.58Z" style="fill:#fdd835"/><rect x="244.58" y="456.1" width="13.67" height="89.98" rx="2.86" style="fill:#fec900"/><path d="M258.25,466.2v6.58H244.58V466.2Zm-13.67,63.21V536h13.67v-6.58Z" style="fill:#fdd835"/><rect x="212.65" y="456.1" width="12.54" height="89.98" rx="2.86" style="fill:#fff"/><rect x="320.72" y="460.68" width="19.4" height="89.98" rx="2.86" transform="translate(-240 306.93) rotate(-37.63)" style="fill:#e5dd4f"/><ellipse cx="330.42" cy="505.67" rx="5.03" ry="10.95" transform="translate(-240 306.93) rotate(-37.63)" style="fill:#7cb342;opacity:0.30000000000000004"/><rect x="225.19" y="456.1" width="19.39" height="89.98" rx="2.86" style="fill:#cec462"/><path d="M225.19,529.41h19.39V536H225.19Zm16.06-28.32a6.37,6.37,0,1,0-6.37,6.36A6.37,6.37,0,0,0,241.25,501.09ZM225.19,466.2v6.58h19.39V466.2Z" style="fill:#d8cb6c"/><rect x="288.27" y="457.34" width="19.4" height="89.98" rx="2.86" transform="translate(-189.65 180.86) rotate(-25.93)" style="fill:#fff"/></svg>